<svg width="60" height="60" viewBox="0 0 60 60" fill="none" xmlns="http://www.w3.org/2000/svg">
<circle cx="30" cy="30" r="30" fill="#FE7E4F"/>
<path d="M43.2204 29.0398C43.1095 28.9327 42.9618 28.8724 42.8077 28.8712H31.1827V25.3837H42.8077C42.9618 25.3826 43.1095 25.3222 43.2204 25.2152L46.7079 21.7277C46.8168 21.6179 46.8779 21.4696 46.8779 21.315C46.8779 21.1604 46.8168 21.012 46.7079 20.9023L43.2204 17.4148C43.1095 17.3077 42.9618 17.2474 42.8077 17.2462H31.1827V15.8628C31.4786 15.5273 31.6715 15.1134 31.7381 14.671C31.8046 14.2285 31.7421 13.7762 31.558 13.3684C31.3739 12.9606 31.0761 12.6146 30.7002 12.3718C30.3243 12.1291 29.8864 12 29.4389 12C28.9915 12 28.5536 12.1291 28.1777 12.3718C27.8018 12.6146 27.5039 12.9606 27.3199 13.3684C27.1358 13.7762 27.0732 14.2285 27.1398 14.671C27.2064 15.1134 27.3992 15.5273 27.6952 15.8628V23.0587H16.0702C15.9161 23.0599 15.7683 23.1202 15.6575 23.2273L12.17 26.7148C12.0611 26.8245 12 26.9729 12 27.1275C12 27.2821 12.0611 27.4304 12.17 27.5402L15.6575 31.0277C15.7683 31.1347 15.9161 31.1951 16.0702 31.1962H27.6952V42.4085C25.9166 42.7398 24.7889 43.5536 24.7889 44.565C24.7889 46.0937 27.1256 46.89 29.4389 46.89C31.7523 46.89 34.0889 46.0937 34.0889 44.565C34.0889 43.5536 32.9613 42.7398 31.1827 42.4085V37.0087H42.8077C42.9618 37.0076 43.1095 36.9472 43.2204 36.8402L46.7079 33.3527C46.8168 33.2429 46.8779 33.0946 46.8779 32.94C46.8779 32.7854 46.8168 32.637 46.7079 32.5273L43.2204 29.0398ZM31.1827 18.4087H42.5694L45.4756 21.315L42.5694 24.2212H31.1827V18.4087ZM29.4389 13.1775C29.6689 13.1775 29.8936 13.2456 30.0848 13.3734C30.276 13.5011 30.425 13.6827 30.513 13.8951C30.6009 14.1075 30.624 14.3413 30.5791 14.5668C30.5343 14.7923 30.4235 14.9994 30.261 15.162C30.0984 15.3246 29.8912 15.4353 29.6657 15.4801C29.4402 15.525 29.2065 15.502 28.9941 15.414C28.7817 15.326 28.6001 15.177 28.4724 14.9858C28.3446 14.7946 28.2764 14.5699 28.2764 14.34C28.2774 14.0319 28.4001 13.7368 28.6179 13.519C28.8358 13.3012 29.1309 13.1784 29.4389 13.1775ZM30.0202 16.5836V43.4025C30.0202 43.5566 29.959 43.7045 29.85 43.8135C29.7409 43.9225 29.5931 43.9837 29.4389 43.9837C29.2848 43.9837 29.1369 43.9225 29.0279 43.8135C28.9189 43.7045 28.8577 43.5566 28.8577 43.4025V16.5836C29.2376 16.6921 29.6403 16.6921 30.0202 16.5836ZM16.3085 30.0337L13.4023 27.1275L16.3085 24.2212H27.6952V30.0337H16.3085ZM32.9264 44.565C32.9264 44.9777 31.6012 45.7275 29.4389 45.7275C27.2767 45.7275 25.9514 44.9777 25.9514 44.565C25.9514 44.2918 26.5734 43.8326 27.7126 43.5827C27.7557 44.0106 27.9562 44.4073 28.2751 44.6957C28.5941 44.9842 29.0089 45.144 29.4389 45.144C29.869 45.144 30.2838 44.9842 30.6028 44.6957C30.9217 44.4073 31.1222 44.0106 31.1653 43.5827C32.3045 43.8326 32.9264 44.2918 32.9264 44.565ZM42.5694 35.8462H31.1827V30.0337H42.5694L45.4756 32.94L42.5694 35.8462Z" fill="white"/>
</svg>
