<svg width="60" height="60" viewBox="0 0 60 60" fill="none" xmlns="http://www.w3.org/2000/svg">
<circle cx="30" cy="30" r="30" fill="#FE7E4F"/>
<path d="M29.9999 45.6C21.4091 45.6 14.3999 38.5908 14.3999 30C14.3999 21.4092 21.4091 14.4 29.9999 14.4C38.5907 14.4 45.5999 21.4092 45.5999 30C45.5999 38.5908 38.5907 45.6 29.9999 45.6ZM29.9999 15.8378C22.1999 15.8378 15.8377 22.2 15.8377 30C15.8377 37.8 22.1999 44.1622 29.9999 44.1622C37.7999 44.1622 44.1621 37.8 44.1621 30C44.1621 22.2 37.7999 15.8378 29.9999 15.8378ZM29.9999 43.1558C29.6045 43.1558 29.281 42.8323 29.281 42.4369V40.3162C29.281 39.9208 29.6045 39.5973 29.9999 39.5973C30.3953 39.5973 30.7188 39.9208 30.7188 40.3162V42.4369C30.7188 42.8323 30.3953 43.1558 29.9999 43.1558ZM38.8064 39.5254C38.6266 39.5254 38.4469 39.4535 38.3031 39.3097L36.7935 37.8C36.5059 37.5125 36.5059 37.0811 36.7935 36.7936C37.081 36.506 37.5123 36.506 37.7999 36.7936L39.3096 38.3032C39.5971 38.5908 39.5971 39.0221 39.3096 39.3097C39.1658 39.4535 38.9861 39.5254 38.8064 39.5254ZM21.1935 39.5254C21.0137 39.5254 20.834 39.4535 20.6902 39.3097C20.4027 39.0221 20.4027 38.5908 20.6902 38.3032L22.1999 36.7936C22.4875 36.506 22.9188 36.506 23.2064 36.7936C23.4939 37.0811 23.4939 37.5125 23.2064 37.8L21.6967 39.3097C21.5529 39.4535 21.3732 39.5254 21.1935 39.5254ZM33.4865 35.0682C33.3068 35.0682 33.1271 34.9963 32.9833 34.8526L29.4967 31.3659C29.3529 31.2221 29.281 31.0424 29.281 30.8627V22.4876C29.281 22.0922 29.6045 21.7687 29.9999 21.7687C30.3953 21.7687 30.7188 22.0922 30.7188 22.4876V30.5392L33.9898 33.8102C34.2773 34.0977 34.2773 34.5291 33.9898 34.8166C33.846 34.9963 33.6663 35.0682 33.4865 35.0682ZM42.4368 30.7189H40.316C39.9206 30.7189 39.5971 30.3954 39.5971 30C39.5971 29.6046 39.9206 29.2811 40.316 29.2811H42.4368C42.8322 29.2811 43.1557 29.6046 43.1557 30C43.1557 30.3954 42.8322 30.7189 42.4368 30.7189ZM19.6838 30.7189H17.563C17.1676 30.7189 16.8441 30.3954 16.8441 30C16.8441 29.6046 17.1676 29.2811 17.563 29.2811H19.6838C20.0792 29.2811 20.4027 29.6046 20.4027 30C20.4027 30.3954 20.0792 30.7189 19.6838 30.7189ZM37.2967 23.4221C37.117 23.4221 36.9372 23.3503 36.7935 23.2065C36.5059 22.9189 36.5059 22.4876 36.7935 22.2L38.3031 20.6903C38.5907 20.4028 39.022 20.4028 39.3096 20.6903C39.5971 20.9779 39.5971 21.4092 39.3096 21.6968L37.7999 23.2065C37.6921 23.3503 37.4764 23.4221 37.2967 23.4221ZM22.7031 23.4221C22.5234 23.4221 22.3437 23.3503 22.1999 23.2065L20.6902 21.6968C20.4027 21.4092 20.4027 20.9779 20.6902 20.6903C20.9778 20.4028 21.4091 20.4028 21.6967 20.6903L23.2064 22.2C23.4939 22.4876 23.4939 22.9189 23.2064 23.2065C23.0626 23.3503 22.8829 23.4221 22.7031 23.4221ZM29.9999 20.4028C29.6045 20.4028 29.281 20.0793 29.281 19.6839V17.5632C29.281 17.1678 29.6045 16.8443 29.9999 16.8443C30.3953 16.8443 30.7188 17.1678 30.7188 17.5632V19.6839C30.7188 20.0793 30.3953 20.4028 29.9999 20.4028Z" fill="white"/>
</svg>
