<svg width="60" height="60" viewBox="0 0 60 60" fill="none" xmlns="http://www.w3.org/2000/svg">
<circle cx="30" cy="30" r="30" fill="#FE7E4F"/>
<mask id="path-2-outside-1_1623_1146" maskUnits="userSpaceOnUse" x="10.7393" y="10.7391" width="37" height="39" fill="black">
<rect fill="white" x="10.7393" y="10.7391" width="37" height="39"/>
<path fill-rule="evenodd" clip-rule="evenodd" d="M30.0109 16.6234C30.0109 16.9728 29.7276 17.2561 29.3782 17.2561C29.0288 17.2561 28.7455 16.9728 28.7455 16.6234V12.3718C28.7455 12.0224 29.0288 11.7391 29.3782 11.7391C29.7276 11.7391 30.0109 12.0224 30.0109 12.3718V16.6234ZM29.5188 18.6238C32.3622 18.6602 35.0297 19.795 37.0298 21.8193C39.0317 23.8454 40.1341 26.53 40.1341 29.3784C40.1341 33.204 38.075 36.7727 34.7605 38.6917C34.1725 39.0322 33.8073 39.6627 33.8073 40.3373V43.2974V44.5629C33.8073 47.0049 31.8206 48.9915 29.3786 48.9915C26.9365 48.9915 24.9498 47.0049 24.9498 44.5629V43.2974V40.3513C24.9498 39.6668 24.591 39.0346 24.0134 38.7015C20.6599 36.768 18.5946 33.1642 18.6233 29.2967C18.6447 26.4252 19.7936 23.7296 21.8581 21.7065C23.9241 19.6818 26.647 18.5871 29.5188 18.6238ZM29.3786 47.7261C31.1229 47.7261 32.542 46.3071 32.542 44.5628V43.93H26.2152V44.5628C26.2152 46.3071 27.6343 47.7261 29.3786 47.7261ZM32.542 40.3373C32.542 39.2126 33.1491 38.1625 34.1264 37.5967C37.0515 35.903 38.8687 32.754 38.8687 29.3784C38.8687 24.212 34.6671 19.9551 29.5026 19.889C26.9686 19.8552 24.5674 20.823 22.7437 22.6101C20.9215 24.3959 19.9075 26.7739 19.8887 29.3061C19.8632 32.7187 21.6859 35.8988 24.6455 37.6052C25.6138 38.1636 26.2152 39.2159 26.2152 40.3512V42.6647H32.542V40.3373ZM38.3973 20.9918C38.5592 20.9918 38.7212 20.93 38.8447 20.8065L41.8511 17.8002C42.0982 17.5531 42.0982 17.1526 41.8511 16.9054C41.6041 16.6586 41.2036 16.6584 40.9564 16.9054L37.9499 19.9117C37.7029 20.1588 37.7029 20.5594 37.9499 20.8065C38.0735 20.93 38.2354 20.9918 38.3973 20.9918ZM42.1327 28.7457H46.3843C46.7337 28.7457 47.017 29.0289 47.017 29.3783C47.017 29.7277 46.7337 30.011 46.3843 30.011H42.1327C41.7833 30.011 41.5 29.7277 41.5 29.3783C41.5 29.0289 41.7833 28.7457 42.1327 28.7457ZM17.2562 29.3783C17.2562 29.0289 16.9729 28.7457 16.6235 28.7457H12.3719C12.0225 28.7457 11.7393 29.0289 11.7393 29.3783C11.7393 29.7277 12.0225 30.011 12.3719 30.011H16.6235C16.9729 30.011 17.2562 29.7277 17.2562 29.3783ZM20.3593 20.9919C20.1973 20.9919 20.0355 20.9301 19.9119 20.8066L16.9055 17.8002C16.6584 17.5532 16.6584 17.1526 16.9055 16.9055C17.1527 16.6585 17.5531 16.6585 17.8003 16.9055L20.8067 19.9118C21.0537 20.1589 21.0537 20.5594 20.8067 20.8066C20.6832 20.9301 20.5213 20.9919 20.3593 20.9919ZM38.8447 37.9499C38.5976 37.7029 38.1971 37.7029 37.9499 37.9499C37.7029 38.197 37.7029 38.5976 37.9499 38.8446L40.9564 41.851C41.08 41.9745 41.2418 42.0363 41.4037 42.0363C41.5657 42.0363 41.7276 41.9745 41.8511 41.851C42.0982 41.6038 42.0982 41.2033 41.8511 40.9562L38.8447 37.9499ZM16.9055 40.9561L19.9119 37.9498C20.1592 37.7028 20.5597 37.703 20.8067 37.9498C21.0537 38.197 21.0537 38.5975 20.8067 38.8446L17.8003 41.8509C17.6767 41.9744 17.5148 42.0362 17.3529 42.0362C17.1909 42.0362 17.0291 41.9744 16.9055 41.8509C16.6584 41.6038 16.6584 41.2032 16.9055 40.9561Z"/>
</mask>
<path fill-rule="evenodd" clip-rule="evenodd" d="M30.0109 16.6234C30.0109 16.9728 29.7276 17.2561 29.3782 17.2561C29.0288 17.2561 28.7455 16.9728 28.7455 16.6234V12.3718C28.7455 12.0224 29.0288 11.7391 29.3782 11.7391C29.7276 11.7391 30.0109 12.0224 30.0109 12.3718V16.6234ZM29.5188 18.6238C32.3622 18.6602 35.0297 19.795 37.0298 21.8193C39.0317 23.8454 40.1341 26.53 40.1341 29.3784C40.1341 33.204 38.075 36.7727 34.7605 38.6917C34.1725 39.0322 33.8073 39.6627 33.8073 40.3373V43.2974V44.5629C33.8073 47.0049 31.8206 48.9915 29.3786 48.9915C26.9365 48.9915 24.9498 47.0049 24.9498 44.5629V43.2974V40.3513C24.9498 39.6668 24.591 39.0346 24.0134 38.7015C20.6599 36.768 18.5946 33.1642 18.6233 29.2967C18.6447 26.4252 19.7936 23.7296 21.8581 21.7065C23.9241 19.6818 26.647 18.5871 29.5188 18.6238ZM29.3786 47.7261C31.1229 47.7261 32.542 46.3071 32.542 44.5628V43.93H26.2152V44.5628C26.2152 46.3071 27.6343 47.7261 29.3786 47.7261ZM32.542 40.3373C32.542 39.2126 33.1491 38.1625 34.1264 37.5967C37.0515 35.903 38.8687 32.754 38.8687 29.3784C38.8687 24.212 34.6671 19.9551 29.5026 19.889C26.9686 19.8552 24.5674 20.823 22.7437 22.6101C20.9215 24.3959 19.9075 26.7739 19.8887 29.3061C19.8632 32.7187 21.6859 35.8988 24.6455 37.6052C25.6138 38.1636 26.2152 39.2159 26.2152 40.3512V42.6647H32.542V40.3373ZM38.3973 20.9918C38.5592 20.9918 38.7212 20.93 38.8447 20.8065L41.8511 17.8002C42.0982 17.5531 42.0982 17.1526 41.8511 16.9054C41.6041 16.6586 41.2036 16.6584 40.9564 16.9054L37.9499 19.9117C37.7029 20.1588 37.7029 20.5594 37.9499 20.8065C38.0735 20.93 38.2354 20.9918 38.3973 20.9918ZM42.1327 28.7457H46.3843C46.7337 28.7457 47.017 29.0289 47.017 29.3783C47.017 29.7277 46.7337 30.011 46.3843 30.011H42.1327C41.7833 30.011 41.5 29.7277 41.5 29.3783C41.5 29.0289 41.7833 28.7457 42.1327 28.7457ZM17.2562 29.3783C17.2562 29.0289 16.9729 28.7457 16.6235 28.7457H12.3719C12.0225 28.7457 11.7393 29.0289 11.7393 29.3783C11.7393 29.7277 12.0225 30.011 12.3719 30.011H16.6235C16.9729 30.011 17.2562 29.7277 17.2562 29.3783ZM20.3593 20.9919C20.1973 20.9919 20.0355 20.9301 19.9119 20.8066L16.9055 17.8002C16.6584 17.5532 16.6584 17.1526 16.9055 16.9055C17.1527 16.6585 17.5531 16.6585 17.8003 16.9055L20.8067 19.9118C21.0537 20.1589 21.0537 20.5594 20.8067 20.8066C20.6832 20.9301 20.5213 20.9919 20.3593 20.9919ZM38.8447 37.9499C38.5976 37.7029 38.1971 37.7029 37.9499 37.9499C37.7029 38.197 37.7029 38.5976 37.9499 38.8446L40.9564 41.851C41.08 41.9745 41.2418 42.0363 41.4037 42.0363C41.5657 42.0363 41.7276 41.9745 41.8511 41.851C42.0982 41.6038 42.0982 41.2033 41.8511 40.9562L38.8447 37.9499ZM16.9055 40.9561L19.9119 37.9498C20.1592 37.7028 20.5597 37.703 20.8067 37.9498C21.0537 38.197 21.0537 38.5975 20.8067 38.8446L17.8003 41.8509C17.6767 41.9744 17.5148 42.0362 17.3529 42.0362C17.1909 42.0362 17.0291 41.9744 16.9055 41.8509C16.6584 41.6038 16.6584 41.2032 16.9055 40.9561Z" fill="white"/>
<path d="M37.0298 21.8193L36.9586 21.8896L36.9586 21.8896L37.0298 21.8193ZM29.5188 18.6238L29.5175 18.7238L29.5188 18.6238ZM34.7605 38.6917L34.7104 38.6052L34.7104 38.6052L34.7605 38.6917ZM24.0134 38.7015L24.0633 38.6149L24.0633 38.6149L24.0134 38.7015ZM18.6233 29.2967L18.7233 29.2975L18.6233 29.2967ZM21.8581 21.7065L21.9281 21.7779L21.9281 21.7779L21.8581 21.7065ZM32.542 43.93H32.642V43.83H32.542V43.93ZM26.2152 43.93V43.83H26.1152V43.93H26.2152ZM34.1264 37.5967L34.1765 37.6832L34.1765 37.6832L34.1264 37.5967ZM29.5026 19.889L29.5013 19.989L29.5014 19.989L29.5026 19.889ZM22.7437 22.6101L22.6737 22.5387L22.6737 22.5387L22.7437 22.6101ZM19.8887 29.3061L19.9887 29.3068V29.3068L19.8887 29.3061ZM24.6455 37.6052L24.6955 37.5186L24.6954 37.5186L24.6455 37.6052ZM26.2152 42.6647H26.1152V42.7647H26.2152V42.6647ZM32.542 42.6647V42.7647H32.642V42.6647H32.542ZM38.8447 20.8065L38.774 20.7358H38.774L38.8447 20.8065ZM41.8511 17.8002L41.9218 17.8709L41.9218 17.8709L41.8511 17.8002ZM41.8511 16.9054L41.9218 16.8347L41.9218 16.8347L41.8511 16.9054ZM40.9564 16.9054L40.8857 16.8347L40.8856 16.8347L40.9564 16.9054ZM37.9499 19.9117L37.8792 19.841L37.8792 19.841L37.9499 19.9117ZM37.9499 20.8065L37.8792 20.8772L37.8793 20.8772L37.9499 20.8065ZM19.9119 20.8066L19.8412 20.8773L19.8412 20.8773L19.9119 20.8066ZM16.9055 17.8002L16.8348 17.871L16.8348 17.871L16.9055 17.8002ZM16.9055 16.9055L16.8348 16.8347L16.8348 16.8348L16.9055 16.9055ZM17.8003 16.9055L17.871 16.8348L17.871 16.8347L17.8003 16.9055ZM20.8067 19.9118L20.8774 19.8411L20.8774 19.8411L20.8067 19.9118ZM20.8067 20.8066L20.8774 20.8773L20.8774 20.8773L20.8067 20.8066ZM37.9499 37.9499L37.8793 37.8791L37.8792 37.8792L37.9499 37.9499ZM38.8447 37.9499L38.9154 37.8792L38.9154 37.8791L38.8447 37.9499ZM37.9499 38.8446L37.8792 38.9153H37.8792L37.9499 38.8446ZM40.9564 41.851L40.8856 41.9217L40.8857 41.9217L40.9564 41.851ZM41.8511 41.851L41.9218 41.9217L41.9218 41.9217L41.8511 41.851ZM41.8511 40.9562L41.9218 40.8855H41.9218L41.8511 40.9562ZM19.9119 37.9498L19.8413 37.8791L19.8412 37.8791L19.9119 37.9498ZM16.9055 40.9561L16.8348 40.8854H16.8348L16.9055 40.9561ZM20.8067 37.9498L20.8774 37.8791L20.8774 37.8791L20.8067 37.9498ZM20.8067 38.8446L20.8774 38.9153H20.8774L20.8067 38.8446ZM17.8003 41.8509L17.7296 41.7802H17.7296L17.8003 41.8509ZM16.9055 41.8509L16.8348 41.9216L16.8348 41.9216L16.9055 41.8509ZM29.3782 17.3561C29.7828 17.3561 30.1109 17.028 30.1109 16.6234H29.9109C29.9109 16.9176 29.6724 17.1561 29.3782 17.1561V17.3561ZM28.6455 16.6234C28.6455 17.028 28.9736 17.3561 29.3782 17.3561V17.1561C29.084 17.1561 28.8455 16.9176 28.8455 16.6234H28.6455ZM28.6455 12.3718V16.6234H28.8455V12.3718H28.6455ZM29.3782 11.6391C28.9736 11.6391 28.6455 11.9672 28.6455 12.3718H28.8455C28.8455 12.0776 29.084 11.8391 29.3782 11.8391V11.6391ZM30.1109 12.3718C30.1109 11.9672 29.7828 11.6391 29.3782 11.6391V11.8391C29.6724 11.8391 29.9109 12.0776 29.9109 12.3718H30.1109ZM30.1109 16.6234V12.3718H29.9109V16.6234H30.1109ZM37.1009 21.7491C35.0824 19.706 32.3898 18.5606 29.5201 18.5239L29.5175 18.7238C32.3346 18.7599 34.9771 19.884 36.9586 21.8896L37.1009 21.7491ZM40.2341 29.3784C40.2341 26.5036 39.1213 23.7939 37.1009 21.7491L36.9586 21.8896C38.942 23.897 40.0341 26.5563 40.0341 29.3784H40.2341ZM34.8106 38.7782C38.156 36.8414 40.2341 33.2397 40.2341 29.3784H40.0341C40.0341 33.1683 37.9941 36.704 34.7104 38.6052L34.8106 38.7782ZM33.9073 40.3373C33.9073 39.6987 34.2532 39.101 34.8106 38.7782L34.7104 38.6052C34.0918 38.9633 33.7073 39.6267 33.7073 40.3373H33.9073ZM33.9073 43.2974V40.3373H33.7073V43.2974H33.9073ZM33.9073 44.5629V43.2974H33.7073V44.5629H33.9073ZM29.3786 49.0915C31.8758 49.0915 33.9073 47.0601 33.9073 44.5629H33.7073C33.7073 46.9496 31.7654 48.8915 29.3786 48.8915V49.0915ZM24.8498 44.5629C24.8498 47.0601 26.8813 49.0915 29.3786 49.0915V48.8915C26.9917 48.8915 25.0498 46.9496 25.0498 44.5629H24.8498ZM24.8498 43.2974V44.5629H25.0498V43.2974H24.8498ZM24.8498 40.3513V43.2974H25.0498V40.3513H24.8498ZM23.9634 38.7881C24.5091 39.1028 24.8498 39.7014 24.8498 40.3513H25.0498C25.0498 39.6322 24.6729 38.9664 24.0633 38.6149L23.9634 38.7881ZM18.5233 29.296C18.4943 33.1995 20.5788 36.8366 23.9634 38.7881L24.0633 38.6149C20.7411 36.6993 18.6948 33.1289 18.7233 29.2975L18.5233 29.296ZM21.7881 21.6351C19.7047 23.6767 18.5449 26.3977 18.5233 29.296L18.7233 29.2975C18.7445 26.4528 19.8824 23.7826 21.9281 21.7779L21.7881 21.6351ZM29.5201 18.5239C26.6215 18.4867 23.873 19.5918 21.7881 21.6351L21.9281 21.7779C23.9752 19.7717 26.6725 18.6874 29.5175 18.7238L29.5201 18.5239ZM32.442 44.5628C32.442 46.2519 31.0676 47.6261 29.3786 47.6261V47.8261C31.1781 47.8261 32.642 46.3623 32.642 44.5628H32.442ZM32.442 43.93V44.5628H32.642V43.93H32.442ZM26.2152 44.03H32.542V43.83H26.2152V44.03ZM26.3152 44.5628V43.93H26.1152V44.5628H26.3152ZM29.3786 47.6261C27.6895 47.6261 26.3152 46.2519 26.3152 44.5628H26.1152C26.1152 46.3623 27.579 47.8261 29.3786 47.8261V47.6261ZM34.0763 37.5101C33.0683 38.0938 32.442 39.1768 32.442 40.3373H32.642C32.642 39.2485 33.2299 38.2313 34.1765 37.6832L34.0763 37.5101ZM38.7687 29.3784C38.7687 32.7183 36.9706 35.8343 34.0763 37.5102L34.1765 37.6832C37.1325 35.9717 38.9687 32.7898 38.9687 29.3784H38.7687ZM29.5014 19.989C34.6111 20.0544 38.7687 24.2667 38.7687 29.3784H38.9687C38.9687 24.1573 34.7232 19.8558 29.5039 19.7891L29.5014 19.989ZM22.8137 22.6815C24.6186 20.9128 26.9942 19.9555 29.5013 19.989L29.504 19.7891C26.943 19.7548 24.5163 20.7331 22.6737 22.5387L22.8137 22.6815ZM19.9887 29.3068C20.0073 26.8014 21.0104 24.4488 22.8137 22.6815L22.6737 22.5387C20.8327 24.3429 19.8077 26.7463 19.7887 29.3053L19.9887 29.3068ZM24.6954 37.5186C21.767 35.8302 19.9635 32.6834 19.9887 29.3068L19.7887 29.3053C19.763 32.7541 21.6048 35.9675 24.5955 37.6919L24.6954 37.5186ZM26.3152 40.3512C26.3152 39.1808 25.6953 38.0952 24.6955 37.5186L24.5955 37.6919C25.5323 38.2321 26.1152 39.2509 26.1152 40.3512H26.3152ZM26.3152 42.6647V40.3512H26.1152V42.6647H26.3152ZM32.542 42.5647H26.2152V42.7647H32.542V42.5647ZM32.442 40.3373V42.6647H32.642V40.3373H32.442ZM38.774 20.7358C38.67 20.8398 38.5338 20.8918 38.3973 20.8918V21.0918C38.5846 21.0918 38.7724 21.0203 38.9154 20.8772L38.774 20.7358ZM41.7804 17.7295L38.774 20.7358L38.9154 20.8772L41.9218 17.8709L41.7804 17.7295ZM41.7804 16.9761C41.9884 17.1842 41.9884 17.5215 41.7804 17.7295L41.9218 17.8709C42.2079 17.5848 42.2079 17.1209 41.9218 16.8347L41.7804 16.9761ZM41.027 16.9762C41.2352 16.7682 41.5725 16.7683 41.7804 16.9762L41.9218 16.8347C41.6358 16.5489 41.1719 16.5487 40.8857 16.8347L41.027 16.9762ZM38.0207 19.9825L41.0271 16.9761L40.8856 16.8347L37.8792 19.841L38.0207 19.9825ZM38.0207 20.7358C37.8126 20.5277 37.8127 20.1905 38.0207 19.9825L37.8792 19.841C37.5931 20.1272 37.5931 20.591 37.8792 20.8772L38.0207 20.7358ZM38.3973 20.8918C38.2608 20.8918 38.1247 20.8398 38.0206 20.7358L37.8793 20.8772C38.0223 21.0202 38.2099 21.0918 38.3973 21.0918V20.8918ZM46.3843 28.6457H42.1327V28.8457H46.3843V28.6457ZM47.117 29.3783C47.117 28.9737 46.7889 28.6457 46.3843 28.6457V28.8457C46.6784 28.8457 46.917 29.0842 46.917 29.3783H47.117ZM46.3843 30.111C46.7889 30.111 47.117 29.783 47.117 29.3783H46.917C46.917 29.6725 46.6784 29.911 46.3843 29.911V30.111ZM42.1327 30.111H46.3843V29.911H42.1327V30.111ZM41.4 29.3783C41.4 29.783 41.7281 30.111 42.1327 30.111V29.911C41.8385 29.911 41.6 29.6725 41.6 29.3783H41.4ZM42.1327 28.6457C41.7281 28.6457 41.4 28.9737 41.4 29.3783H41.6C41.6 29.0842 41.8385 28.8457 42.1327 28.8457V28.6457ZM16.6235 28.8457C16.9177 28.8457 17.1562 29.0842 17.1562 29.3783H17.3562C17.3562 28.9737 17.0282 28.6457 16.6235 28.6457V28.8457ZM12.3719 28.8457H16.6235V28.6457H12.3719V28.8457ZM11.8393 29.3783C11.8393 29.0842 12.0778 28.8457 12.3719 28.8457V28.6457C11.9673 28.6457 11.6393 28.9737 11.6393 29.3783H11.8393ZM12.3719 29.911C12.0778 29.911 11.8393 29.6725 11.8393 29.3783H11.6393C11.6393 29.783 11.9673 30.111 12.3719 30.111V29.911ZM16.6235 29.911H12.3719V30.111H16.6235V29.911ZM17.1562 29.3783C17.1562 29.6725 16.9177 29.911 16.6235 29.911V30.111C17.0282 30.111 17.3562 29.783 17.3562 29.3783H17.1562ZM19.8412 20.8773C19.9843 21.0203 20.1719 21.0919 20.3593 21.0919V20.8919C20.2228 20.8919 20.0867 20.8399 19.9826 20.7358L19.8412 20.8773ZM16.8348 17.871L19.8412 20.8773L19.9826 20.7359L16.9762 17.7295L16.8348 17.871ZM16.8348 16.8348C16.5487 17.121 16.5487 17.5848 16.8348 17.871L16.9762 17.7295C16.7682 17.5215 16.7682 17.1843 16.9762 16.9762L16.8348 16.8348ZM17.871 16.8347C17.5848 16.5487 17.121 16.5487 16.8348 16.8347L16.9762 16.9762C17.1843 16.7683 17.5215 16.7683 17.7296 16.9762L17.871 16.8347ZM20.8774 19.8411L17.871 16.8348L17.7296 16.9762L20.736 19.9825L20.8774 19.8411ZM20.8774 20.8773C21.1635 20.5911 21.1635 20.1272 20.8774 19.8411L20.736 19.9825C20.944 20.1905 20.944 20.5278 20.736 20.7359L20.8774 20.8773ZM20.3593 21.0919C20.5467 21.0919 20.7344 21.0203 20.8774 20.8773L20.736 20.7359C20.632 20.8399 20.4958 20.8919 20.3593 20.8919V21.0919ZM38.0206 38.0206C38.2287 37.8126 38.5659 37.8126 38.774 38.0206L38.9154 37.8791C38.6292 37.5931 38.1654 37.5931 37.8793 37.8791L38.0206 38.0206ZM38.0207 38.7739C37.8127 38.5659 37.8126 38.2287 38.0207 38.0206L37.8792 37.8792C37.5931 38.1654 37.5931 38.6292 37.8792 38.9153L38.0207 38.7739ZM41.0271 41.7803L38.0207 38.7739L37.8792 38.9153L40.8856 41.9217L41.0271 41.7803ZM41.4037 41.9363C41.2672 41.9363 41.1312 41.8843 41.027 41.7802L40.8857 41.9217C41.0288 42.0647 41.2163 42.1363 41.4037 42.1363V41.9363ZM41.7804 41.7803C41.6764 41.8843 41.5403 41.9363 41.4037 41.9363V42.1363C41.5911 42.1363 41.7788 42.0647 41.9218 41.9217L41.7804 41.7803ZM41.7804 41.0269C41.9884 41.2349 41.9884 41.5722 41.7804 41.7803L41.9218 41.9217C42.2079 41.6355 42.2079 41.1716 41.9218 40.8855L41.7804 41.0269ZM38.774 38.0206L41.7804 41.0269L41.9218 40.8855L38.9154 37.8792L38.774 38.0206ZM19.8412 37.8791L16.8348 40.8854L16.9762 41.0269L19.9826 38.0205L19.8412 37.8791ZM20.8774 37.8791C20.5913 37.5932 20.1276 37.5931 19.8413 37.8791L19.9826 38.0206C20.1908 37.8126 20.5281 37.8127 20.736 38.0205L20.8774 37.8791ZM20.8774 38.9153C21.1635 38.6292 21.1635 38.1653 20.8774 37.8791L20.736 38.0205C20.944 38.2286 20.944 38.5659 20.736 38.7739L20.8774 38.9153ZM17.871 41.9216L20.8774 38.9153L20.736 38.7739L17.7296 41.7802L17.871 41.9216ZM17.3529 42.1362C17.5402 42.1362 17.7279 42.0647 17.871 41.9216L17.7296 41.7802C17.6255 41.8842 17.4894 41.9362 17.3529 41.9362V42.1362ZM16.8348 41.9216C16.9779 42.0646 17.1655 42.1362 17.3529 42.1362V41.9362C17.2164 41.9362 17.0803 41.8842 16.9762 41.7802L16.8348 41.9216ZM16.8348 40.8854C16.5487 41.1715 16.5487 41.6354 16.8348 41.9216L16.9762 41.7802C16.7682 41.5721 16.7682 41.2349 16.9762 41.0269L16.8348 40.8854Z" fill="white" mask="url(#path-2-outside-1_1623_1146)"/>
</svg>
