<svg width="60" height="60" viewBox="0 0 60 60" fill="none" xmlns="http://www.w3.org/2000/svg">
<circle cx="30" cy="30" r="30" fill="#FE7E4F"/>
<path d="M45.8395 41.3233C45.834 41.3083 45.8255 41.2952 45.8194 41.2805C45.8132 41.2658 45.8142 41.2597 45.8102 41.2499L41.3401 30.5838C41.1476 30.1266 40.8379 29.7283 40.4424 29.4289C40.0468 29.1296 39.5794 28.9397 39.0871 28.8786L38.7572 28.8196C38.1491 28.7107 37.5422 28.6029 36.9367 28.4961L36.5424 28.4261C36.027 28.3344 35.54 28.2497 35.056 28.1308C34.7276 28.0522 34.404 27.955 34.0866 27.8395C33.8953 27.7676 33.8953 27.7117 33.8953 27.6848V26.4131C34.5517 25.7956 35.0349 25.0169 35.2966 24.1545H35.842C36.237 24.1545 36.624 24.0428 36.9582 23.8321C37.2924 23.6215 37.5601 23.3206 37.7304 22.9641C37.9007 22.6077 37.9667 22.2103 37.9206 21.818C37.8746 21.4257 37.7184 21.0544 37.4702 20.7471V19.0614C37.4772 17.1313 36.7301 15.2748 35.388 13.8876C34.7358 13.2079 33.9528 12.6671 33.0861 12.2978C32.2193 11.9286 31.2869 11.7386 30.3448 11.7391C26.4137 11.7391 23.2154 15.024 23.2154 19.0614V20.7477C22.9672 21.0551 22.811 21.4265 22.765 21.819C22.7191 22.2114 22.7851 22.6089 22.9556 22.9654C23.126 23.3218 23.3939 23.6228 23.7282 23.8334C24.0626 24.044 24.4497 24.1556 24.8448 24.1554H25.4232C25.6915 24.9909 26.161 25.7477 26.7904 26.3592V27.6664C26.7904 27.7762 26.5388 27.8597 26.1328 27.959L25.9665 28.0006C25.3694 28.1534 24.7415 28.2641 24.1341 28.3705L21.2775 28.8792C20.7853 28.9397 20.3177 29.1293 19.9224 29.4289C19.5272 29.7285 19.2182 30.1274 19.0269 30.585L14.5621 41.2398C14.5566 41.2527 14.5544 41.2658 14.5502 41.2786C14.5459 41.2915 14.5352 41.3074 14.5294 41.3227C14.2671 42.0122 14.2895 42.7777 14.5916 43.4507C14.8936 44.1238 15.4507 44.6493 16.1401 44.9117L21.9984 47.1433C22.0788 47.1817 22.1667 47.2018 22.2558 47.2023H38.1122C38.1983 47.2019 38.2833 47.1829 38.3613 47.1467L44.2285 44.9132C44.57 44.7835 44.8826 44.5877 45.1484 44.3371C45.4142 44.0865 45.6281 43.786 45.7777 43.4527C45.9273 43.1194 46.0098 42.7599 46.0204 42.3948C46.031 42.0296 45.9695 41.6659 45.8395 41.3245V41.3233ZM36.713 22.0589C36.7102 22.2893 36.6176 22.5095 36.455 22.6727C36.2923 22.8358 36.0724 22.9291 35.842 22.9326H35.5094C35.5152 22.8326 35.5241 22.7326 35.5241 22.6336V21.187H35.8411C36.0712 21.1908 36.2907 21.2838 36.4534 21.4465C36.6161 21.6092 36.7092 21.8288 36.713 22.0589ZM24.8458 22.9326C24.6143 22.9326 24.3923 22.8406 24.2286 22.6769C24.0649 22.5133 23.973 22.2913 23.973 22.0598C23.973 21.8283 24.0649 21.6063 24.2286 21.4426C24.3923 21.279 24.6143 21.187 24.8458 21.187H25.1634V22.504C25.1634 22.6483 25.1756 22.7904 25.1866 22.932L24.8458 22.9326ZM25.33 18.7444C25.2457 18.849 25.1906 18.9739 25.1701 19.1067C25.165 19.138 25.1624 19.1697 25.1625 19.2014V19.9657H24.8439C24.7077 19.9661 24.5718 19.9798 24.4382 20.0067V19.0614C24.4382 15.6986 27.0881 12.962 30.3448 12.962C31.1231 12.9618 31.8935 13.1191 32.6094 13.4244C33.3254 13.7297 33.9722 14.1767 34.511 14.7384C35.6313 15.8979 36.2547 17.4491 36.2483 19.0614V20.0051C36.1145 19.9783 35.9785 19.9646 35.842 19.9642H35.5241V19.1999C35.524 19.0993 35.4991 19.0002 35.4516 18.9116C35.4041 18.8229 35.3354 18.7473 35.2517 18.6915C35.168 18.6357 35.0718 18.6014 34.9716 18.5917C34.8715 18.582 34.7705 18.5972 34.6776 18.6359C33.656 19.0601 32.5411 19.2096 31.4438 19.0694C31.0441 18.9993 30.6619 18.8519 30.3185 18.6356C29.8337 18.341 29.2979 18.14 28.7389 18.0431C27.6753 17.8975 26.5923 18.0652 25.6226 18.5258C25.5087 18.5741 25.4083 18.6494 25.33 18.745V18.7444ZM26.4846 23.4089C26.4177 23.1078 26.3846 22.8002 26.3859 22.4918V19.5307C27.0712 19.2479 27.8191 19.1516 28.5537 19.2516C28.9723 19.3278 29.3726 19.4828 29.7334 19.7083C30.2054 19.9972 30.7291 20.1914 31.2754 20.28C32.2888 20.4155 33.3193 20.3396 34.3019 20.0571V22.6336C34.3014 22.8992 34.2756 23.1641 34.2248 23.4248C34.0389 24.3538 33.5246 25.1847 32.7761 25.7655C32.0275 26.3462 31.0949 26.638 30.1488 26.5873C29.2746 26.5308 28.443 26.1894 27.7813 25.6154C27.1195 25.0414 26.6641 24.2663 26.4846 23.4089ZM28.0132 27.6658V27.2446C28.6569 27.5814 29.3663 27.7739 30.092 27.8086C30.1782 27.8129 30.2635 27.815 30.3488 27.815C31.1562 27.8152 31.9526 27.6268 32.6743 27.2647V27.6848C32.6784 27.9789 32.7766 28.2639 32.9545 28.498C33.1324 28.7322 33.3807 28.9032 33.6629 28.9859C33.8033 29.0375 33.9482 29.0837 34.094 29.1296C33.7534 29.8361 33.2197 30.4319 32.5547 30.8479C31.8897 31.2639 31.1206 31.4832 30.3362 31.4805C29.5518 31.4777 28.7842 31.253 28.1222 30.8324C27.4601 30.4117 26.9307 29.8122 26.595 29.1033C27.1444 28.959 28.0132 28.6484 28.0132 27.6664V27.6658ZM16.5733 43.7692C16.3792 43.6981 16.2011 43.5891 16.0495 43.4485C15.8978 43.308 15.7756 43.1388 15.6898 42.9506C15.6041 42.7625 15.5566 42.5592 15.55 42.3526C15.5435 42.1459 15.578 41.94 15.6517 41.7468C15.7253 41.5536 15.8366 41.377 15.9791 41.2271C16.1215 41.0773 16.2923 40.9572 16.4816 40.8739C16.6708 40.7906 16.8747 40.7457 17.0814 40.7418C17.2881 40.7379 17.4936 40.7751 17.6858 40.8513L21.2931 42.2242L21.5683 45.6704L16.5733 43.7692ZM37.5472 45.9783H22.8195L22.0675 36.5436H38.3005L37.5472 45.9783ZM21.4059 35.3207C21.3214 35.3207 21.2378 35.3381 21.1604 35.372C21.083 35.4059 21.0134 35.4554 20.9561 35.5175C20.8988 35.5796 20.855 35.6529 20.8275 35.7328C20.7999 35.8127 20.7892 35.8974 20.7961 35.9817L21.1861 40.8757L18.119 39.7076C17.8037 39.5872 17.4691 39.5251 17.1316 39.5242C16.9459 39.527 16.761 39.5487 16.5798 39.589L20.1565 31.0558C20.2654 30.7953 20.4417 30.5686 20.6674 30.399C20.8931 30.2294 21.16 30.1231 21.4405 30.091L21.4772 30.0855L24.3447 29.5744C24.6853 29.5147 25.0325 29.4521 25.3813 29.3836C25.7866 30.3619 26.4716 31.1988 27.3505 31.7893C28.2295 32.3798 29.2632 32.6977 30.3221 32.703C31.381 32.7083 32.4179 32.4009 33.3027 31.8192C34.1876 31.2376 34.881 30.4076 35.296 29.4334L38.8881 30.0855L38.9254 30.091C39.2061 30.1238 39.473 30.2305 39.699 30.4002C39.9249 30.5699 40.1018 30.7966 40.2115 31.057L43.7876 39.589C43.6063 39.5494 43.4214 39.5283 43.2358 39.526C42.8977 39.5268 42.5625 39.5889 42.2466 39.7095L39.1803 40.8763L39.5704 35.9817C39.5771 35.8975 39.5663 35.8129 39.5387 35.7332C39.5112 35.6534 39.4674 35.5802 39.4101 35.5182C39.3528 35.4562 39.2833 35.4068 39.206 35.3729C39.1287 35.3391 39.0452 35.3216 38.9608 35.3216L21.4059 35.3207ZM43.7941 43.7692L38.7982 45.6726L39.0733 42.226L42.6807 40.8534C43.0686 40.7098 43.4974 40.7243 43.8747 40.8937C44.2521 41.0631 44.5478 41.3739 44.6983 41.7592C44.8442 42.1458 44.8309 42.5744 44.6613 42.9511C44.4918 43.3279 44.1798 43.6221 43.7937 43.7692H43.7941Z" fill="white"/>
</svg>
