<svg width="60" height="60" viewBox="0 0 60 60" fill="none" xmlns="http://www.w3.org/2000/svg">
<circle cx="30" cy="30" r="30" fill="#FE7E4F"/>
<path d="M20.8338 24.2952C23.221 24.2952 25.1563 22.36 25.1563 19.9727C25.1563 17.5855 23.221 15.6502 20.8338 15.6502C18.4465 15.6502 16.5112 17.5855 16.5112 19.9727C16.5112 22.36 18.4465 24.2952 20.8338 24.2952Z" stroke="white" stroke-miterlimit="10" stroke-linecap="round" stroke-linejoin="round"/>
<path d="M18.9736 20.023L20.1799 21.2293L22.7433 18.7162" stroke="white" stroke-miterlimit="10" stroke-linecap="round" stroke-linejoin="round"/>
<path d="M39.0788 24.3455C41.4939 24.3455 43.4516 22.3878 43.4516 19.9728C43.4516 17.5577 41.4939 15.6 39.0788 15.6C36.6638 15.6 34.7061 17.5577 34.7061 19.9728C34.7061 22.3878 36.6638 24.3455 39.0788 24.3455Z" stroke="white" stroke-miterlimit="10" stroke-linecap="round" stroke-linejoin="round"/>
<path d="M37.3701 18.2639L40.7879 21.6314" stroke="white" stroke-miterlimit="10" stroke-linecap="round" stroke-linejoin="round"/>
<path d="M40.7879 18.2639L37.3701 21.6314" stroke="white" stroke-miterlimit="10" stroke-linecap="round" stroke-linejoin="round"/>
<path d="M17.0639 22.134C16.1592 22.2345 15.4053 23.0387 15.4053 23.9937V41.2335H44.5572V23.9937C44.5572 23.0387 43.8032 22.2345 42.8985 22.0837" stroke="white" stroke-miterlimit="10" stroke-linecap="round" stroke-linejoin="round"/>
<path d="M35.3093 22.0837H24.6035" stroke="white" stroke-miterlimit="10" stroke-linecap="round" stroke-linejoin="round"/>
<path d="M45.5623 41.2335H14.3999C14.3999 43.445 16.2093 45.2545 18.4209 45.2545H41.5413C43.7528 45.2545 45.5623 43.445 45.5623 41.2335Z" stroke="white" stroke-miterlimit="10" stroke-linecap="round" stroke-linejoin="round"/>
<path d="M26.8149 27.311H39.5312" stroke="white" stroke-miterlimit="10" stroke-linecap="round" stroke-linejoin="round"/>
<path d="M20.4316 27.4618L21.1353 28.1654L22.8442 26.4565" stroke="white" stroke-miterlimit="10" stroke-linecap="round" stroke-linejoin="round"/>
<path d="M26.8149 32.0859H39.5312" stroke="white" stroke-miterlimit="10" stroke-linecap="round" stroke-linejoin="round"/>
<path d="M20.4316 32.2367L21.1353 32.9403L22.8442 31.2314" stroke="white" stroke-miterlimit="10" stroke-linecap="round" stroke-linejoin="round"/>
<path d="M26.8149 36.8607H39.5312" stroke="white" stroke-miterlimit="10" stroke-linecap="round" stroke-linejoin="round"/>
<path d="M20.6831 35.9058L22.5428 37.7654" stroke="white" stroke-miterlimit="10" stroke-linecap="round" stroke-linejoin="round"/>
<path d="M22.5428 35.9058L20.6831 37.7654" stroke="white" stroke-miterlimit="10" stroke-linecap="round" stroke-linejoin="round"/>
<path d="M26.312 41.2335H33.6V43.244H26.312V41.2335Z" stroke="white" stroke-miterlimit="10" stroke-linecap="round" stroke-linejoin="round"/>
</svg>
