<svg width="45" height="46" viewBox="0 0 45 46" fill="none" xmlns="http://www.w3.org/2000/svg">
<circle cx="22.5" cy="23" r="22.5" fill="#FE7E4F"/>
<g clip-path="url(#clip0_2077_3636)">
<path d="M33 32.8072V16.685C33 14.7227 31.412 13.1234 29.4635 13.1234H28.0901V12.8813C28.0901 12.1033 27.4635 11.4723 26.691 11.4723H25.0858C24.7511 10.0459 23.4893 9.00854 22.0043 9.00854C20.5193 9.00854 19.2489 10.0459 18.9227 11.4723H17.3176C16.5451 11.4723 15.9185 12.1033 15.9185 12.8813V13.1234H14.5451C12.588 13.1148 11 14.714 11 16.685V17.0221C11 17.0221 11.0086 17.0826 11.0172 17.1172C11.0172 17.1518 11 17.1777 11 17.2123V33.4383C11 35.4006 12.588 36.9999 14.5365 36.9999H29.4549C31.3691 36.9999 32.9227 35.4612 32.9828 33.5507C32.9828 33.5334 32.9914 33.5161 32.9914 33.4902V33.4297V32.8072H33ZM16.7253 12.8727C16.7253 12.5442 16.9914 12.2762 17.3176 12.2762H19.2575C19.4635 12.2762 19.6352 12.1206 19.6609 11.9131C19.7983 10.7202 20.8026 9.8125 21.9957 9.8125C23.1888 9.8125 24.1931 10.7115 24.3305 11.9131C24.3562 12.1206 24.5279 12.2762 24.7339 12.2762H26.6738C27 12.2762 27.2661 12.5442 27.2661 12.8727V14.1262C27.2661 14.4547 27 14.7227 26.6738 14.7227H17.3176C16.9914 14.7227 16.7253 14.4547 16.7253 14.1262V12.8727ZM29.4635 36.1787H14.5365C13.0343 36.1787 11.8069 34.9511 11.8069 33.4297V17.2123C11.8069 17.2123 11.7983 17.1518 11.7897 17.1172C11.7897 17.0826 11.8069 17.0567 11.8069 17.0221V16.685C11.8069 15.1722 13.0258 13.936 14.5365 13.936H15.9099V14.1262C15.9099 14.9042 16.5365 15.5353 17.309 15.5353H26.6824C27.4549 15.5353 28.0815 14.9042 28.0815 14.1262V13.936H29.4549C30.9571 13.936 32.1845 15.1635 32.1845 16.685V33.4383C32.1845 34.9511 30.9657 36.1787 29.4549 36.1787H29.4635Z" fill="white"/>
<path d="M22.0043 13.5904C22.7683 13.5904 23.3949 12.9594 23.3949 12.19C23.3949 11.4206 22.7683 10.7896 22.0043 10.7896C21.2404 10.7896 20.6138 11.4206 20.6138 12.19C20.6138 12.9594 21.2404 13.5904 22.0043 13.5904ZM22.0043 11.6108C22.3219 11.6108 22.5794 11.8701 22.5794 12.19C22.5794 12.5098 22.3219 12.7692 22.0043 12.7692C21.6867 12.7692 21.4292 12.5098 21.4292 12.19C21.4292 11.8701 21.6867 11.6108 22.0043 11.6108Z" fill="white"/>
<path d="M27.515 29.7818C26.794 29.7818 26.1502 30.119 25.721 30.6463L18.6652 26.7303C18.7596 26.4623 18.8026 26.1684 18.7854 25.8745L24.6652 24.5086C25.0171 25.3385 25.8326 25.9177 26.7854 25.9177C28.0558 25.9177 29.0944 24.8717 29.0944 23.5923C29.0944 22.4512 28.2704 21.5003 27.1974 21.3014V18.1548L28.0901 19.1403C28.1674 19.2267 28.2789 19.27 28.3905 19.27C28.485 19.27 28.588 19.2354 28.6652 19.1576C28.8283 19.002 28.8455 18.7426 28.691 18.5784L27.0858 16.8235C26.9313 16.6506 26.6395 16.6506 26.485 16.8235L24.8798 18.5784C24.7253 18.7426 24.7425 19.002 24.9056 19.1576C25.0686 19.3132 25.3262 19.2959 25.4807 19.1316L26.3734 18.1461V21.2928C25.2575 21.4916 24.4163 22.5203 24.4764 23.696L18.5965 25.0619C18.2446 24.232 17.4292 23.6528 16.4764 23.6528C15.206 23.6528 14.1674 24.6988 14.1674 25.9782C14.1674 27.2576 15.206 28.3036 16.4764 28.3036C17.1974 28.3036 17.8412 27.9665 18.2704 27.4391L25.3262 31.3552C25.2489 31.5886 25.206 31.8393 25.206 32.0986C25.206 33.378 26.2446 34.424 27.515 34.424C28.7854 34.424 29.824 33.378 29.824 32.0986C29.824 30.8192 28.7854 29.7732 27.515 29.7732V29.7818ZM26.794 22.0881C27.618 22.0881 28.2875 22.7624 28.2875 23.5923C28.2875 24.4222 27.618 25.0964 26.794 25.0964C25.9699 25.0964 25.3004 24.4222 25.3004 23.5923C25.3004 22.7624 25.9699 22.0881 26.794 22.0881ZM16.485 27.4824C15.6609 27.4824 14.9914 26.8081 14.9914 25.9782C14.9914 25.1483 15.6609 24.474 16.485 24.474C17.309 24.474 17.9785 25.1483 17.9785 25.9782C17.9785 26.8081 17.309 27.4824 16.485 27.4824ZM27.515 33.6028C26.691 33.6028 26.0214 32.9285 26.0214 32.0986C26.0214 31.2687 26.691 30.5944 27.515 30.5944C28.339 30.5944 29.0086 31.2687 29.0086 32.0986C29.0086 32.9285 28.339 33.6028 27.515 33.6028Z" fill="white"/>
<path d="M17.1202 21.3532C17.1202 21.699 17.2575 22.0189 17.4979 22.2609C17.7382 22.503 18.0644 22.6413 18.3992 22.6413C18.7339 22.6413 19.0601 22.503 19.3005 22.2609L19.6352 21.9238L19.97 22.2609C20.2103 22.503 20.5365 22.6413 20.8713 22.6413C21.206 22.6413 21.5322 22.503 21.7726 22.2609C22.0129 22.0189 22.1502 21.6904 22.1502 21.3532C22.1502 21.0161 22.0129 20.6876 21.7726 20.4455L21.4378 20.1084L21.7726 19.7713C22.0129 19.5292 22.1502 19.2007 22.1502 18.8636C22.1502 18.5264 22.0129 18.1979 21.7726 17.9559C21.2747 17.4545 20.4593 17.4545 19.9614 17.9559L19.6266 18.293L19.2919 17.9559C18.794 17.4545 17.9786 17.4545 17.4807 17.9559C17.2404 18.1979 17.103 18.5264 17.103 18.8636C17.103 19.2007 17.2404 19.5292 17.4807 19.7713L17.8155 20.1084L17.4807 20.4455C17.2404 20.6876 17.103 21.0161 17.103 21.3532H17.1202ZM18.6996 19.8145L18.073 19.1834C17.9871 19.097 17.9356 18.9759 17.9356 18.8549C17.9356 18.7339 17.9871 18.6129 18.073 18.5264C18.2532 18.3449 18.5537 18.3449 18.7339 18.5264L19.3605 19.1575C19.4378 19.2353 19.5408 19.2785 19.6524 19.2785C19.764 19.2785 19.867 19.2353 19.9442 19.1575L20.5708 18.5264C20.7511 18.3449 21.0515 18.3449 21.2318 18.5264C21.3176 18.6129 21.3691 18.7339 21.3691 18.8549C21.3691 18.9759 21.3176 19.097 21.2318 19.1834L20.6052 19.8145C20.5279 19.8923 20.485 19.996 20.485 20.1084C20.485 20.2208 20.5279 20.3245 20.6052 20.4023L21.2318 21.0334C21.3176 21.1198 21.3691 21.2408 21.3691 21.3619C21.3691 21.4829 21.3176 21.6039 21.2318 21.6904C21.1459 21.7768 21.0258 21.8287 20.9056 21.8287C20.7854 21.8287 20.6653 21.7768 20.5794 21.6904L19.9528 21.0593C19.8756 20.9815 19.7726 20.9383 19.661 20.9383C19.5494 20.9383 19.4464 20.9815 19.3691 21.0593L18.7425 21.6904C18.6567 21.7768 18.5365 21.8287 18.4163 21.8287C18.2962 21.8287 18.176 21.7768 18.0902 21.6904C18.0043 21.6039 17.9528 21.4829 17.9528 21.3619C17.9528 21.2408 18.0043 21.1198 18.0902 21.0334L18.7168 20.4023C18.8799 20.2381 18.8799 19.9787 18.7168 19.8231L18.6996 19.8145Z" fill="white"/>
<path d="M20.1502 32.4874L20.485 32.1503C20.9828 31.6489 20.9828 30.8276 20.485 30.3262C19.9871 29.8248 19.1717 29.8248 18.6738 30.3262L18.339 30.6634L18.0043 30.3262C17.5064 29.8248 16.691 29.8248 16.1931 30.3262C15.6953 30.8276 15.6953 31.6489 16.1931 32.1503L16.5279 32.4874L16.1931 32.8245C15.9528 33.0666 15.8154 33.3951 15.8154 33.7322C15.8154 34.0694 15.9528 34.3979 16.1931 34.6399C16.4335 34.882 16.7596 35.0203 17.0944 35.0203C17.4292 35.0203 17.7553 34.882 17.9957 34.6399L18.3305 34.3028L18.6652 34.6399C18.9056 34.882 19.2317 35.0203 19.5665 35.0203C19.9013 35.0203 20.2274 34.882 20.4678 34.6399C20.7081 34.3979 20.8455 34.0694 20.8455 33.7322C20.8455 33.3951 20.7081 33.0666 20.4678 32.8245L20.133 32.4874H20.1502ZM19.9099 34.0694C19.824 34.1558 19.7038 34.2077 19.5837 34.2077C19.4635 34.2077 19.3433 34.1558 19.2575 34.0694L18.6309 33.4383C18.5536 33.3605 18.4506 33.3173 18.339 33.3173C18.2274 33.3173 18.133 33.3605 18.0472 33.4383L17.4206 34.0694C17.3347 34.1558 17.2146 34.2077 17.0944 34.2077C16.9742 34.2077 16.8541 34.1558 16.7682 34.0694C16.6824 33.9829 16.6309 33.8619 16.6309 33.7409C16.6309 33.6198 16.6824 33.4988 16.7682 33.4124L17.3948 32.7813C17.5579 32.6171 17.5579 32.3577 17.3948 32.2021L16.7682 31.5711C16.588 31.3895 16.588 31.087 16.7682 30.9054C16.9485 30.7239 17.2489 30.7239 17.4292 30.9054L18.0558 31.5365C18.133 31.6143 18.236 31.6575 18.3476 31.6575C18.4592 31.6575 18.5622 31.6143 18.6395 31.5365L19.2661 30.9054C19.4463 30.7239 19.7468 30.7239 19.927 30.9054C20.1073 31.087 20.1073 31.3895 19.927 31.5711L19.3004 32.2021C19.2232 32.2799 19.1802 32.3837 19.1802 32.496C19.1802 32.6084 19.2232 32.7122 19.3004 32.79L19.927 33.421C20.0129 33.5075 20.0644 33.6285 20.0644 33.7495C20.0644 33.8705 20.0129 33.9916 19.927 34.078L19.9099 34.0694Z" fill="white"/>
</g>
<defs>
<clipPath id="clip0_2077_3636">
<rect width="22" height="28" fill="white" transform="translate(11 9)"/>
</clipPath>
</defs>
</svg>
