<svg width="45" height="46" viewBox="0 0 45 46" fill="none" xmlns="http://www.w3.org/2000/svg">
<circle cx="22.5" cy="23" r="22.5" fill="#FE7E4F"/>
<g clip-path="url(#clip0_2077_3635)">
<path d="M31.23 20.5934H26.7592V13.4746C26.7276 12.0892 25.604 10.9842 24.2351 11.0002H12.5796C11.1948 10.9682 10.0396 12.0732 10 13.4746V21.0258C10.0396 22.4272 11.1948 23.5322 12.5796 23.5002H12.6429V25.8705C12.6429 26.1668 12.8802 26.407 13.173 26.407C13.2917 26.407 13.4104 26.3669 13.5054 26.2869L16.9712 23.4922H17.0503V30.579C17.074 31.9803 18.2135 33.1014 19.6061 33.0774H26.8384L30.3042 35.8721C30.5336 36.0562 30.866 36.0162 31.048 35.784C31.1192 35.6879 31.1667 35.5678 31.1667 35.4477V33.0774H31.23C32.6147 33.1094 33.77 32.0044 33.8095 30.603V23.0518C33.77 21.6504 32.6147 20.5454 31.23 20.5774V20.5934ZM16.8762 22.6033C16.7417 22.6033 16.6072 22.6514 16.5043 22.7395L13.5291 25.1338V23.1959C13.5291 22.8676 13.2601 22.6033 12.9356 22.6033H12.5796C11.6775 22.6354 10.9179 21.9307 10.8783 21.0258V13.4746C10.9179 12.5617 11.6775 11.857 12.5796 11.8971H24.2272C25.1134 11.873 25.8414 12.5857 25.8651 13.4746V21.0258C25.8414 21.9227 25.1055 22.6274 24.2272 22.6033H16.8683H16.8762ZM32.9233 30.611C32.8837 31.5239 32.1241 32.2286 31.222 32.1885H30.866C30.5416 32.1885 30.2725 32.4528 30.2725 32.7811V34.719L27.2973 32.3247C27.1944 32.2366 27.0599 32.1965 26.9254 32.1965H19.5982C18.6961 32.2206 17.9523 31.4999 17.9286 30.587V23.5002H24.2272C25.422 23.5162 26.4586 22.6754 26.7039 21.4903H31.222C32.1241 21.4582 32.8837 22.1629 32.9233 23.0678V30.619V30.611Z" fill="white"/>
<path d="M20.4132 14.8357C19.1314 13.6906 17.1769 13.8107 16.0454 15.108C14.9139 16.4052 15.0325 18.3831 16.3144 19.5282C17.3431 20.4491 18.8465 20.5692 20.0097 19.8325L20.2629 20.1208C20.4211 20.305 20.706 20.321 20.888 20.1528C21.07 19.9927 21.0858 19.7124 20.9276 19.5282L20.6902 19.2559C21.8217 17.9587 21.703 15.9808 20.4211 14.8357H20.4132ZM20.0888 18.5753L19.1314 17.4782C18.9652 17.2941 18.6882 17.278 18.5063 17.4462C18.3243 17.6064 18.3084 17.8866 18.4667 18.0708L19.4083 19.1518C19.0918 19.328 18.7357 19.4241 18.3717 19.4241C17.1532 19.4241 16.1641 18.4231 16.1641 17.19C16.1641 15.9568 17.1532 14.9558 18.3717 14.9558C19.5903 14.9558 20.5794 15.9568 20.5794 17.19C20.5794 17.6944 20.4053 18.1829 20.0888 18.5753Z" fill="white"/>
<path d="M25.8414 24.0126C25.7464 23.7884 25.4853 23.6763 25.2638 23.7723C25.1609 23.8204 25.0738 23.9005 25.0264 24.0126C24.1955 26.0225 23.5467 27.584 22.8266 29.3217C22.7317 29.5459 22.8424 29.8101 23.064 29.9062C23.2856 30.0023 23.5388 29.8902 23.6337 29.666L24.243 28.1926H26.6168L27.2261 29.666C27.3211 29.8902 27.5822 30.0023 27.8038 29.9062C28.0253 29.8101 28.1282 29.5539 28.0411 29.3217C27.2419 27.3998 27.6692 28.4168 25.8414 24.0126ZM24.6149 27.3037L25.4299 25.3418L26.2449 27.3037H24.6149Z" fill="white"/>
</g>
<defs>
<clipPath id="clip0_2077_3635">
<rect width="23.8095" height="25" fill="white" transform="translate(10 11)"/>
</clipPath>
</defs>
</svg>
