<svg width="45" height="46" viewBox="0 0 45 46" fill="none" xmlns="http://www.w3.org/2000/svg">
<circle cx="22.5" cy="23" r="22.5" fill="#FE7E4F"/>
<g clip-path="url(#clip0_2077_3638)">
<path d="M34.8746 24.2368H32.6609V21.3721C32.6609 21.0465 32.447 20.8326 32.1215 20.8326H22.5692V18.5166H24.7828C25.4339 18.5166 25.9176 18.0329 25.9176 17.3819V11.9314C25.9176 11.2803 25.4339 10.7966 24.7828 10.7966H19.2766C18.6255 10.7966 18.1418 11.2803 18.1418 11.9314V17.4377C18.1418 18.0887 18.6255 18.5724 19.2766 18.5724H21.4902V20.8419H11.9379C11.6124 20.8419 11.3985 21.0558 11.3985 21.3814V24.2461H9.18479C8.53371 24.2461 8.05005 24.7298 8.05005 25.3809V30.8871C8.05005 31.5382 8.53371 32.0219 9.18479 32.0219H14.6911C15.3422 32.0219 15.8258 31.5382 15.8258 30.8871V25.3809C15.8258 24.7298 15.3422 24.2461 14.6911 24.2461H12.4774V21.9301H21.4902V24.2461H19.2766C18.6255 24.2461 18.1418 24.7298 18.1418 25.3809V30.8871C18.1418 31.5382 18.6255 32.0219 19.2766 32.0219H24.7828C25.4339 32.0219 25.9176 31.5382 25.9176 30.8871V25.3809C25.9176 24.7298 25.4339 24.2461 24.7828 24.2461H22.5692V21.9301H31.582V24.2461H29.3683C28.7172 24.2461 28.2336 24.7298 28.2336 25.3809V30.8871C28.2336 31.5382 28.7172 32.0219 29.3683 32.0219H34.8746C35.5257 32.0219 36.0094 31.5382 36.0094 30.8871V25.3809C36.0094 24.7298 35.4699 24.2461 34.8746 24.2461V24.2368ZM14.7376 25.3716C14.7376 25.3157 14.6818 25.3157 14.7376 25.3716V30.8778C14.7376 30.9151 14.719 30.9337 14.6818 30.9337H9.18479C9.14759 30.9337 9.12898 30.9151 9.12898 30.8778V25.3716C9.12898 25.3344 9.14759 25.3157 9.18479 25.3157L14.7469 25.3716H14.7376ZM24.8294 25.3716C24.8294 25.3157 24.7735 25.3157 24.8294 25.3716V30.8778C24.8294 30.9151 24.8107 30.9337 24.7735 30.9337H19.2673C19.23 30.9337 19.2114 30.9151 19.2114 30.8778V25.3716C19.2114 25.3344 19.23 25.3157 19.2673 25.3157L24.8294 25.3716ZM19.2207 17.3819C19.2766 17.4377 19.2207 17.4377 19.2207 17.3819V11.9314C19.2207 11.8942 19.2394 11.8756 19.2766 11.8756H24.7828C24.82 11.8756 24.8387 11.8942 24.8387 11.9314V17.4377C24.8387 17.4749 24.82 17.4935 24.7828 17.4935L19.2207 17.3819ZM34.9211 30.822C34.9211 30.8778 34.8653 30.8778 34.9211 30.822L29.359 30.8778C29.3218 30.8778 29.3032 30.8592 29.3032 30.822V25.3716C29.3032 25.3344 29.3218 25.3157 29.359 25.3157H34.8653C34.9025 25.3157 34.9211 25.3344 34.9211 25.3716V30.822Z" fill="white"/>
</g>
<defs>
<clipPath id="clip0_2077_3638">
<rect width="27.95" height="21.2067" fill="white" transform="translate(8.05005 10.7966)"/>
</clipPath>
</defs>
</svg>
