<svg width="45" height="46" viewBox="0 0 45 46" fill="none" xmlns="http://www.w3.org/2000/svg">
<circle cx="22.5" cy="23" r="22.5" fill="#FE7E4F"/>
<path d="M33.0176 9C33.8646 9.00015 34.5634 9.69341 34.5635 10.5537V31.6699C34.5635 32.5215 33.8734 33.2245 33.0176 33.2246H32.292V33.9531C32.2919 34.8048 31.602 35.5068 30.7461 35.5068H30.0215V36.2363C30.0212 37.0878 29.3314 37.79 28.4756 37.79H12.2832C11.4362 37.79 10.7376 37.0966 10.7373 36.2363V15.1191C10.7375 14.2676 11.4274 13.5654 12.2832 13.5654H13.0078V12.8369C13.0078 11.9852 13.6978 11.2822 14.5537 11.2822H15.2783V10.5537C15.2784 9.70218 15.9684 9.00013 16.8242 9H33.0176ZM12.2744 14.6982C12.0387 14.6982 11.8459 14.891 11.8457 15.1279V36.2451C11.846 36.482 12.0388 36.6748 12.2744 36.6748H28.4756C28.7112 36.6748 28.9031 36.482 28.9033 36.2451L28.8945 36.2539V18.8252H25.3486C25.043 18.8251 24.79 18.5699 24.79 18.2627V14.6982H12.2744ZM14.5537 12.4062C14.3179 12.4062 14.126 12.5998 14.126 12.8369V13.5654H25.3574C25.4972 13.5654 25.6286 13.6183 25.7334 13.7148C25.7507 13.7322 25.751 13.7324 25.751 13.7324L29.8643 17.8682C29.9602 17.9734 30.0214 18.096 30.0215 18.2363V34.3916H30.7461C30.9819 34.3916 31.1747 34.1989 31.1748 33.9619V12.8369C31.1748 12.5998 30.9819 12.4062 30.7461 12.4062H14.5537ZM16.8242 10.1328C16.5886 10.1329 16.3966 10.3256 16.3965 10.5625V11.291H30.7549C31.6021 11.291 32.3008 11.9852 32.3008 12.8457V32.1094H33.0264C33.262 32.1092 33.4541 31.9157 33.4541 31.6787H33.4453V10.5625C33.4452 10.3256 33.2532 10.133 33.0176 10.1328H16.8242ZM23.0635 23.8916C23.2168 23.8917 23.3619 23.9532 23.4727 24.0684C23.5834 24.1836 23.6426 24.3346 23.6426 24.4941C23.6425 24.6536 23.5834 24.8047 23.4727 24.9199L18.9043 29.6709C18.7937 29.7858 18.6492 29.8476 18.4961 29.8477C18.3428 29.8477 18.1977 29.7859 18.0869 29.6709L15.8711 27.3662C15.7603 27.251 15.7002 27.1 15.7002 26.9404C15.7002 26.7809 15.7603 26.6299 15.8711 26.5146C15.9819 26.3995 16.127 26.3379 16.2803 26.3379C16.4336 26.3379 16.5787 26.3995 16.6895 26.5146L18.4961 28.3945L22.6543 24.0684C22.7651 23.9532 22.9101 23.8916 23.0635 23.8916ZM25.917 17.6924H28.1084L25.917 15.4883V17.6924Z" fill="white"/>
</svg>
