<svg width="45" height="46" viewBox="0 0 45 46" fill="none" xmlns="http://www.w3.org/2000/svg">
<circle cx="22.5" cy="23" r="22.5" fill="#FE7E4F"/>
<path d="M22.4556 10.1733C22.7304 10.1733 22.9486 9.95586 22.9486 9.68202V7.4913C22.9486 7.21746 22.7304 7 22.4556 7C22.1808 7 21.9625 7.21746 21.9625 7.4913V9.68202C21.9625 9.95586 22.1808 10.1733 22.4556 10.1733Z" fill="white"/>
<path d="M34.5231 26.8974L33.6502 26.0276C33.343 25.7215 32.9227 25.5524 32.4863 25.5524C32.2034 25.5524 31.9366 25.6249 31.6941 25.7537L30.0533 24.1187L30.1342 24.0382C30.797 23.3697 30.797 22.2905 30.1342 21.63C29.8998 21.3884 29.6007 21.2354 29.2774 21.1709C29.3259 21.0179 29.3421 20.8568 29.3421 20.6957C29.3421 20.2367 29.1642 19.8098 28.8409 19.4876C28.6065 19.246 28.3075 19.093 27.9842 19.0285C28.0327 18.8755 28.0488 18.7144 28.0488 18.5533C28.0488 18.0943 27.871 17.6674 27.5477 17.3452C27.3052 17.1036 27.0061 16.9506 26.6909 16.8861C26.8607 16.3062 26.7152 15.6539 26.2625 15.2028C25.8826 14.8243 25.3653 14.6632 24.8723 14.7196L21.6149 14.1075C21.1219 14.0108 20.4995 13.9544 20.1035 14.3088C20.0792 14.333 20.055 14.3571 20.0307 14.3894C19.4245 14.1719 18.7132 14.3008 18.2283 14.784C17.9049 15.1062 17.7271 15.533 17.7271 15.9921C17.7271 16.1532 17.7514 16.3143 17.7918 16.4673C17.4685 16.5318 17.1694 16.6928 16.935 16.9264C16.6117 17.2486 16.4339 17.6754 16.4339 18.1345C16.4339 18.2956 16.4581 18.4567 16.4985 18.6178C16.1752 18.6822 15.8762 18.8433 15.6418 19.0769C15.3185 19.399 15.1406 19.8259 15.1406 20.285C15.1406 20.6313 15.2457 20.9696 15.4397 21.2515C15.1972 21.332 14.9709 21.4689 14.785 21.6622C14.1141 22.3227 14.1141 23.41 14.785 24.0704L14.8658 24.151L13.225 25.7859C12.6107 25.496 11.859 25.6088 11.3579 26.1081L10.485 26.978C10.1778 27.284 10 27.6948 10 28.1378C10 28.5807 10.1697 28.9915 10.485 29.2975L15.7792 34.5649C16.1025 34.8871 16.5228 35.0401 16.9431 35.0401C17.3634 35.0401 17.7837 34.8791 18.107 34.5649L18.98 33.6951C19.2871 33.389 19.4649 32.9783 19.4649 32.5353C19.4649 32.2212 19.376 31.9232 19.2144 31.6655L21.0653 29.8211C21.2755 29.6036 21.8655 29.6439 22.4394 29.6841C22.8435 29.7083 23.2962 29.7405 23.7407 29.6922L25.7695 31.7057C25.6402 31.9474 25.5674 32.2131 25.5674 32.495C25.5674 32.93 25.7371 33.3488 26.0524 33.6548L26.9253 34.5247C27.2325 34.8307 27.6528 34.9999 28.0892 34.9999C28.5257 34.9999 28.946 34.8307 29.2532 34.5247L34.5393 29.2573C34.8464 28.9512 35.0242 28.5405 35.0242 28.0975C35.0242 27.6545 34.8545 27.2437 34.5393 26.9377L34.5231 26.8974ZM21.421 15.0498L23.5629 15.4525L22.2777 16.7251C22.0757 16.6284 21.8089 16.4512 21.5099 16.1693C21.1057 15.7827 20.8067 15.3317 20.7824 15.0498C20.7824 15.0256 20.7824 15.0176 20.7824 15.0015C20.8471 14.9854 21.0168 14.9693 21.421 15.0417V15.0498ZM18.9234 15.4525C19.1739 15.2028 19.5619 15.1787 19.8448 15.3639C20.0065 16.0324 20.5803 16.6365 20.839 16.8861C21.033 17.0714 21.6392 17.611 22.2616 17.764C22.3424 17.8849 22.3909 18.0298 22.3909 18.1748C22.3909 18.3681 22.3181 18.5533 22.1807 18.6822C22.0433 18.8191 21.8655 18.8916 21.6715 18.8916C21.4775 18.8916 21.2916 18.8191 21.1623 18.6822L18.9395 16.4673C18.8021 16.3304 18.7294 16.1532 18.7294 15.9599C18.7294 15.7666 18.8021 15.5814 18.9395 15.4525H18.9234ZM17.6301 17.5949C17.7675 17.458 17.9454 17.3855 18.1393 17.3855C18.3333 17.3855 18.5192 17.458 18.6566 17.5949L20.451 19.3749C20.7339 19.6568 20.7339 20.1158 20.451 20.3977C20.3136 20.5347 20.1358 20.6071 19.9337 20.6071C19.7317 20.6071 19.5538 20.5347 19.4164 20.3977L18.0585 19.0446L17.6301 18.6178C17.4927 18.4809 17.42 18.3037 17.42 18.1104C17.42 17.9171 17.4927 17.7399 17.6301 17.603V17.5949ZM16.3369 19.7454C16.4743 19.6084 16.6521 19.5359 16.8461 19.5359C17.0401 19.5359 17.2179 19.6084 17.3553 19.7454L18.7213 21.1065C18.8587 21.2434 18.9315 21.4206 18.9315 21.6139C18.9315 21.8072 18.8587 21.9844 18.7213 22.1213C18.5839 22.2582 18.4061 22.3307 18.2121 22.3307C18.0181 22.3307 17.8322 22.2582 17.6948 22.1213L17.2017 21.63L16.3369 20.7682C16.1995 20.6313 16.1267 20.4541 16.1267 20.2608C16.1267 20.0675 16.1995 19.8823 16.3369 19.7534V19.7454ZM15.4801 22.3227C15.6175 22.1858 15.7953 22.1133 15.9974 22.1133C16.1995 22.1133 16.3773 22.1858 16.5147 22.3227L17.0078 22.814C17.1452 22.9509 17.2179 23.1281 17.2179 23.3214C17.2179 23.5147 17.1452 23.6919 17.0078 23.8288C16.8704 23.9657 16.6925 24.0382 16.4985 24.0382C16.3046 24.0382 16.1187 23.9657 15.9812 23.8288L15.9166 23.7644L15.4882 23.3375C15.2053 23.0556 15.2053 22.5965 15.4882 22.3146L15.4801 22.3227ZM18.2768 32.9622L17.4038 33.832C17.1452 34.0897 16.7249 34.0897 16.4743 33.832L16.151 33.5099C15.7549 33.0588 12.4652 29.8372 12.2713 29.6439L11.1801 28.5566C11.0588 28.4358 10.9861 28.2666 10.9861 28.0894C10.9861 27.9122 11.0508 27.7512 11.1801 27.6223L12.053 26.7524C12.2713 26.535 12.6027 26.5028 12.8613 26.6558C12.8775 26.68 12.9017 26.7041 12.926 26.7283C12.9664 26.7685 13.0149 26.8008 13.0715 26.8249L18.0747 31.8024C18.0989 31.8507 18.1313 31.899 18.1717 31.9474C18.2121 31.9876 18.2606 32.0198 18.3091 32.044C18.4142 32.1648 18.4707 32.3178 18.4707 32.4789C18.4707 32.6561 18.4061 32.8172 18.2768 32.9461V32.9622ZM24.7753 29.3056C24.8885 29.2331 24.9935 29.1445 25.0986 29.0479L25.5351 28.6129C25.7291 28.4196 25.7291 28.1136 25.5351 27.9203C25.3411 27.727 25.0339 27.727 24.84 27.9203L24.4035 28.3552C23.9832 28.774 23.2315 28.7176 22.496 28.6693C21.7038 28.6129 20.8794 28.5566 20.3459 29.1042L18.5273 30.9164L13.9848 26.39L15.5933 24.7872C15.86 24.9483 16.1672 25.0369 16.4905 25.0369C16.9512 25.0369 17.3796 24.8597 17.7029 24.5376C18.0262 24.2154 18.204 23.7885 18.204 23.3294C18.204 23.3294 18.204 23.3214 18.204 23.3133C18.204 23.3133 18.2121 23.3133 18.2202 23.3133C18.6809 23.3133 19.1093 23.1361 19.4326 22.814C19.7559 22.4918 19.9337 22.0649 19.9337 21.6059C19.9337 21.6059 19.9337 21.5978 19.9337 21.5897C19.9337 21.5897 19.9418 21.5897 19.9499 21.5897C20.4106 21.5897 20.839 21.4126 21.1623 21.0904C21.5018 20.7521 21.6634 20.3091 21.6634 19.8742C21.6634 19.8742 21.6715 19.8742 21.6796 19.8742C22.1403 19.8742 22.5687 19.697 22.892 19.3749C23.2153 19.0527 23.3931 18.6258 23.3931 18.1667C23.3931 17.8446 23.3042 17.5385 23.1426 17.2808L24.549 15.8794C24.6541 15.7747 24.7834 15.7102 24.9208 15.6861C24.937 15.6861 24.9531 15.6861 24.9612 15.6861C25.1794 15.6539 25.4058 15.7263 25.5755 15.8874C25.8584 16.1693 25.8584 16.6284 25.5755 16.9103L25.1471 17.3372L24.6541 17.8285C24.4601 18.0218 24.4601 18.3278 24.6541 18.5211C24.848 18.7144 25.1552 18.7144 25.3492 18.5211L25.7776 18.0943L25.8422 18.0298C26.1251 17.7479 26.5858 17.7479 26.8687 18.0298C27.0061 18.1667 27.0789 18.3439 27.0789 18.5372C27.0789 18.7305 27.0061 18.9077 26.8687 19.0446L26.4403 19.4796L25.9473 19.9709C25.7533 20.1642 25.7533 20.4702 25.9473 20.6635C26.1413 20.8568 26.4484 20.8568 26.6424 20.6635L27.1355 20.1722C27.2729 20.0353 27.4507 19.9628 27.6447 19.9628C27.8387 19.9628 28.0246 20.0353 28.162 20.1722C28.2994 20.3091 28.3721 20.4863 28.3721 20.6796C28.3721 20.8729 28.2994 21.0501 28.162 21.187L27.2971 22.0488C27.1031 22.2421 27.1031 22.5562 27.2971 22.7415C27.3941 22.8381 27.5234 22.8865 27.6447 22.8865C27.7659 22.8865 27.8952 22.8381 27.9922 22.7415L28.4125 22.3227C28.55 22.1858 28.7278 22.1133 28.9218 22.1133C29.1157 22.1133 29.3017 22.1858 29.431 22.3227C29.7139 22.6046 29.7139 23.0637 29.431 23.3455L29.0026 23.7724L28.3236 24.449C28.1296 24.6423 28.1296 24.9483 28.3236 25.1416C28.4206 25.2383 28.55 25.2866 28.6712 25.2866C28.7924 25.2866 28.9218 25.2383 29.0188 25.1416L29.3501 24.8114L30.9505 26.3981L26.408 30.9245L24.7834 29.3056H24.7753ZM33.828 28.5163L28.5419 33.7837C28.4206 33.9045 28.2509 33.977 28.0731 33.977C27.8952 33.977 27.7336 33.9126 27.6043 33.7837L26.7313 32.9138C26.6101 32.793 26.5373 32.6239 26.5373 32.4467C26.5373 32.2695 26.602 32.1084 26.7313 31.9796L32.0175 26.7122C32.1387 26.5914 32.3084 26.5189 32.4863 26.5189C32.6641 26.5189 32.8257 26.5833 32.9551 26.7122L33.828 27.582C33.9492 27.7028 34.022 27.872 34.022 28.0492C34.022 28.2263 33.9573 28.3874 33.828 28.5163Z" fill="white"/>
<path d="M15.9004 12.7626C15.9974 12.8593 16.1268 12.9076 16.248 12.9076C16.3692 12.9076 16.4986 12.8593 16.5956 12.7626C16.7895 12.5693 16.7895 12.2552 16.5956 12.0699L14.8012 10.2739C14.6072 10.0806 14.292 10.0806 14.1061 10.2739C13.9121 10.4672 13.9121 10.7813 14.1061 10.9665L15.9004 12.7546V12.7626Z" fill="white"/>
<path d="M28.6631 12.9076C28.7924 12.9076 28.9137 12.8593 29.0107 12.7626L30.805 10.9746C30.999 10.7813 30.999 10.4752 30.805 10.2819C30.611 10.0886 30.3039 10.0886 30.1099 10.2819L28.3155 12.07C28.1215 12.2633 28.1215 12.5693 28.3155 12.7626C28.4125 12.8593 28.5419 12.9076 28.6631 12.9076Z" fill="white"/>
</svg>
