<svg width="45" height="46" viewBox="0 0 45 46" fill="none" xmlns="http://www.w3.org/2000/svg">
<circle cx="22.5" cy="23" r="22.5" fill="#FE7E4F"/>
<path d="M28.2227 11C29.0488 11 29.7227 11.6739 29.7227 12.5V34.501C29.7224 35.3269 29.0486 36 28.2227 36H11.5C10.674 36 10.0002 35.3269 10 34.501V12.5C10 11.6739 10.6739 11 11.5 11H28.2227ZM33.1475 13.6387C34.166 13.6387 34.9998 14.4648 35 15.4912V32.4795C35 32.5516 34.992 32.6156 34.96 32.6797L33.5967 35.7119C33.5164 35.8882 33.3399 36 33.1475 36C32.9551 35.9999 32.7784 35.8883 32.6982 35.7119L31.335 32.6797C31.311 32.6156 31.2949 32.5516 31.2949 32.4795V15.4912C31.2951 14.4728 32.1211 13.6388 33.1475 13.6387ZM11.5 11.9707C11.2032 11.9707 10.9707 12.2113 10.9707 12.5V34.501C10.9709 34.7975 11.2114 35.0303 11.5 35.0303H28.2227C28.5193 35.0303 28.7517 34.7895 28.752 34.501V12.5C28.752 12.2032 28.5114 11.9707 28.2227 11.9707H11.5ZM32.5381 32.9766L33.1475 34.332L33.7568 32.9766H32.5381ZM15.9033 28.2363C16.0958 28.0441 16.4003 28.0441 16.5928 28.2363C16.7853 28.4288 16.7853 28.7343 16.5928 28.9268L15.374 30.1455L16.5928 31.3643C16.7853 31.5568 16.7853 31.8622 16.5928 32.0547C16.4966 32.1508 16.3763 32.1992 16.248 32.1992C16.1198 32.1992 15.9995 32.1508 15.9033 32.0547L14.6836 30.835L13.4648 32.0547C13.3686 32.1508 13.2483 32.1992 13.1201 32.1992C12.9919 32.1992 12.8716 32.1508 12.7754 32.0547C12.5829 31.8622 12.5829 31.5568 12.7754 31.3643L13.9941 30.1455L12.7754 28.9268C12.5829 28.7343 12.5829 28.4288 12.7754 28.2363C12.9678 28.0442 13.2724 28.0441 13.4648 28.2363L14.6836 29.4561L15.9033 28.2363ZM32.2734 17.0479V31.998H34.0303V17.0479H32.2734ZM26.6025 29.6562C26.8752 29.6562 27.0918 29.8728 27.0918 30.1455C27.0917 30.4181 26.8752 30.6348 26.6025 30.6348H19.376C19.1034 30.6347 18.8868 30.4181 18.8867 30.1455C18.8867 29.8729 19.1033 29.6563 19.376 29.6562H26.6025ZM15.9033 21.5947C16.0957 21.4026 16.4004 21.4027 16.5928 21.5947C16.7853 21.7872 16.7853 22.0927 16.5928 22.2852L15.374 23.5039L16.5928 24.7236C16.7852 24.9161 16.7852 25.2206 16.5928 25.4131C16.4965 25.5093 16.3763 25.5576 16.248 25.5576C16.1198 25.5576 15.9995 25.5093 15.9033 25.4131L14.6836 24.1943L13.4648 25.4131C13.3686 25.5093 13.2484 25.5576 13.1201 25.5576C12.9919 25.5576 12.8716 25.5092 12.7754 25.4131C12.5829 25.2206 12.583 24.9161 12.7754 24.7236L13.9941 23.5039L12.7754 22.2852C12.5829 22.0927 12.5829 21.7872 12.7754 21.5947C12.9678 21.4027 13.2725 21.4026 13.4648 21.5947L14.6836 22.8145L15.9033 21.5947ZM26.6025 23.0156C26.8752 23.0156 27.0918 23.2322 27.0918 23.5049C27.0916 23.7774 26.8751 23.9941 26.6025 23.9941H19.376C19.1035 23.9941 18.887 23.7773 18.8867 23.5049C18.8867 23.2322 19.1033 23.0157 19.376 23.0156H26.6025ZM15.9033 15.9727C16.0958 15.7803 16.4003 15.7804 16.5928 15.9727C16.7852 16.1651 16.7852 16.4696 16.5928 16.6621L14.4912 18.7637C14.395 18.8599 14.2748 18.9082 14.1465 18.9082C14.0182 18.9081 13.8979 18.8599 13.8018 18.7637L12.7832 17.7451C12.5908 17.5526 12.5908 17.2481 12.7832 17.0557C12.9757 16.8632 13.2802 16.8633 13.4727 17.0557L14.1465 17.7295L15.9033 15.9727ZM26.6025 16.8789C26.8751 16.8789 27.0916 17.0956 27.0918 17.3682C27.0918 17.6409 26.8752 17.8574 26.6025 17.8574H19.376C19.1033 17.8574 18.8867 17.6408 18.8867 17.3682C18.8869 17.0957 19.1035 16.879 19.376 16.8789H26.6025ZM33.1553 14.6094C32.6663 14.6096 32.2737 15.0103 32.2734 15.4912V16.0693H34.0381V15.4912C34.0379 15.0021 33.6444 14.6094 33.1553 14.6094Z" fill="white"/>
</svg>
