<svg width="45" height="46" viewBox="0 0 45 46" fill="none" xmlns="http://www.w3.org/2000/svg">
<circle cx="22.5" cy="23" r="22.5" fill="#FE7E4F"/>
<g clip-path="url(#clip0_2077_3640)">
<path d="M16.3622 26.5753C16.6709 26.1461 16.8451 25.6217 16.8451 25.0495C16.8451 23.6032 15.6735 22.4192 14.2248 22.4192C12.7761 22.4192 11.6045 23.5953 11.6045 25.0495C11.6045 26.5037 12.7761 27.6798 14.2248 27.6798C14.8106 27.6798 15.3489 27.4891 15.7843 27.1633L16.1643 27.5447C16.2435 27.6242 16.3464 27.6639 16.4572 27.6639C16.568 27.6639 16.6709 27.6242 16.7501 27.5447C16.9084 27.3858 16.9084 27.1236 16.7501 26.9646L16.3701 26.5832L16.3622 26.5753ZM15.7685 25.9793L15.3331 25.5422C15.1747 25.3833 14.9135 25.3833 14.7552 25.5422C14.5969 25.7011 14.5969 25.9634 14.7552 26.1223L15.1985 26.5673C14.9214 26.7501 14.5889 26.8534 14.2327 26.8534C13.2432 26.8534 12.4357 26.0428 12.4357 25.0495C12.4357 24.0562 13.2432 23.2456 14.2327 23.2456C15.2222 23.2456 16.0297 24.0562 16.0297 25.0495C16.0297 25.3912 15.9347 25.7091 15.7685 25.9793Z" fill="white"/>
<path d="M23.2097 22.4192C22.9802 22.4192 22.7981 22.602 22.7981 22.8324V27.2666C22.7981 27.4971 22.9802 27.6798 23.2097 27.6798C23.4393 27.6798 23.6214 27.4971 23.6214 27.2666V22.8324C23.6214 22.602 23.4393 22.4192 23.2097 22.4192Z" fill="white"/>
<path d="M24.9355 22.4192C24.7059 22.4192 24.5238 22.602 24.5238 22.8324C24.5238 23.0629 24.7059 23.2456 24.9355 23.2456H26.97L24.5001 27.0441C24.4209 27.1713 24.413 27.3302 24.4843 27.4653C24.5555 27.6004 24.698 27.6798 24.8484 27.6798H27.7933C28.0229 27.6798 28.2049 27.4971 28.2049 27.2666C28.2049 27.0362 28.0229 26.8534 27.7933 26.8534H25.6005L28.0704 23.0549C28.1495 22.9278 28.1574 22.7688 28.0862 22.6337C28.0149 22.4987 27.8724 22.4192 27.722 22.4192H24.9355Z" fill="white"/>
<path d="M21.4207 22.4192C21.1911 22.4192 21.009 22.602 21.009 22.8324V25.8839C21.009 26.1144 20.9457 26.464 20.3995 26.7342C20.2332 26.8137 20.0511 26.8613 19.8532 26.8613C19.6316 26.8613 19.4337 26.8057 19.2595 26.6945C18.9033 26.464 18.7529 26.2336 18.7529 25.8919V22.8404C18.7529 22.6099 18.5708 22.4271 18.3412 22.4271C18.1116 22.4271 17.9296 22.6099 17.9296 22.8404V25.8919C17.9296 26.5196 18.2146 27.0044 18.8083 27.3858C19.117 27.5845 19.4653 27.6878 19.8453 27.6878C20.1699 27.6878 20.4786 27.6163 20.7557 27.4732C21.6344 27.0282 21.8165 26.3686 21.8165 25.8839V22.8324C21.8165 22.602 21.6344 22.4192 21.4048 22.4192H21.4207Z" fill="white"/>
<path d="M36.3429 13.8845V13.8686C36.3429 13.8686 36.3113 13.805 36.2638 13.7176C36.2638 13.7017 36.248 13.6938 36.24 13.6779C36.24 13.6779 36.24 13.6779 36.2321 13.6699C35.9946 13.2806 35.4088 12.4064 34.6964 11.9932C34.6726 11.9773 34.6568 11.9773 34.633 11.9694C33.7226 11.3416 32.6777 10.9919 31.5615 10.9919C28.5612 10.9919 26.123 13.4395 26.123 16.4513C26.123 16.785 26.1547 17.1108 26.2101 17.4287H10.512C9.6808 17.4287 9 18.1121 9 18.9465V31.1445C9 31.9869 9.6808 32.6623 10.512 32.6623H23.1069L26.5267 35.8807C26.6059 35.9522 26.7088 35.9919 26.8038 35.9919C26.8592 35.9919 26.9146 35.984 26.97 35.9602C27.1204 35.8966 27.2154 35.7456 27.2154 35.5787V32.6623H29.2895C30.1286 32.6623 30.8015 31.9789 30.8015 31.1445V21.8549C31.0469 21.8867 31.3003 21.9106 31.5536 21.9106C34.5539 21.9106 36.9921 19.463 36.9921 16.4513C36.9921 15.5533 36.7625 14.6712 36.3429 13.8845ZM29.9861 31.1525C29.9861 31.5339 29.6774 31.8518 29.2895 31.8518H26.8038C26.5742 31.8518 26.3921 32.0345 26.3921 32.265V34.641L23.5502 31.963C23.471 31.8915 23.376 31.8518 23.2731 31.8518H10.512C10.132 31.8518 9.81538 31.5418 9.81538 31.1525V18.9544C9.81538 18.573 10.1241 18.2551 10.512 18.2551H26.4238C26.9938 19.8921 28.3237 21.1795 29.9861 21.6801V31.1525ZM31.5615 21.0921C29.0124 21.0921 26.9463 19.0101 26.9463 16.4592C26.9463 13.9083 29.0204 11.8263 31.5615 11.8263C32.5906 11.8263 33.5643 12.1601 34.3797 12.7879C34.3797 12.7879 34.3797 12.7879 34.3876 12.7879C34.728 13.0501 35.2188 13.5269 35.6067 14.2421C35.6621 14.3375 35.7096 14.4328 35.7571 14.5361C35.8046 14.6394 35.8442 14.7507 35.8838 14.8619C36.0659 15.3705 36.1767 15.9029 36.1767 16.4513C36.1767 19.0101 34.1026 21.0841 31.5615 21.0841V21.0921Z" fill="white"/>
<path d="M31.5615 19.2883C31.3398 19.2883 31.1656 19.4632 31.1656 19.6857C31.1656 19.9082 31.3398 20.083 31.5615 20.083C31.7831 20.083 31.9573 19.9082 31.9573 19.6857C31.9573 19.4632 31.7831 19.2883 31.5615 19.2883Z" fill="white"/>
<path d="M31.6011 12.8993C31.6011 12.8993 31.5694 12.8993 31.5615 12.8993C30.5324 12.8993 29.6537 13.6622 29.5112 14.6873C29.4953 14.7826 29.4874 14.878 29.4874 14.9734C29.4874 15.2038 29.6695 15.3866 29.8991 15.3866C30.1286 15.3866 30.3107 15.2038 30.3107 14.9734C30.3107 14.9177 30.3107 14.8542 30.3266 14.7985C30.4136 14.1708 30.9519 13.7099 31.5853 13.7178C32.2344 13.7337 32.7727 14.2502 32.8044 14.9018C32.8202 15.2515 32.7015 15.5773 32.464 15.8316C32.2265 16.0859 31.9019 16.221 31.5615 16.221C31.3319 16.221 31.1499 16.4038 31.1499 16.6342V18.3745C31.1499 18.605 31.3319 18.7877 31.5615 18.7877C31.7911 18.7877 31.9732 18.605 31.9732 18.3745V16.9997C32.3848 16.9123 32.7727 16.7057 33.0656 16.3958C33.4614 15.9746 33.6593 15.4343 33.6277 14.8542C33.5722 13.7734 32.6856 12.9073 31.6011 12.8914V12.8993Z" fill="white"/>
</g>
<defs>
<clipPath id="clip0_2077_3640">
<rect width="28" height="25" fill="white" transform="translate(9 11)"/>
</clipPath>
</defs>
</svg>
