<svg width="45" height="46" viewBox="0 0 45 46" fill="none" xmlns="http://www.w3.org/2000/svg">
<circle cx="22.5" cy="23" r="22.5" fill="#FE7E4F"/>
<g clip-path="url(#clip0_2077_3642)">
<path d="M27.2516 25.8193C26.96 25.8193 26.7285 26.0594 26.7285 26.3425V29.9791C26.7285 31.4371 25.5448 32.6122 24.0954 32.6122H18.4003C18.1087 32.6122 17.8771 32.8523 17.8771 33.1353V34.1817L16.6163 32.9209C16.5306 32.7322 16.3504 32.6036 16.136 32.6036H12.7053C11.2472 32.6036 10.0722 31.42 10.0722 29.9705V21.8482C10.0722 20.3901 11.2558 19.2151 12.7053 19.2151H18.0315C18.3231 19.2151 18.5547 18.9749 18.5547 18.6919C18.5547 18.4089 18.3145 18.1687 18.0315 18.1687H12.7053C10.6725 18.1687 9.01721 19.824 9.01721 21.8568V29.9791C9.01721 32.0118 10.6725 33.6671 12.7053 33.6671H15.8616L18.0315 35.8371C18.1344 35.94 18.2631 35.9914 18.4003 35.9914C18.4689 35.9914 18.5375 35.9743 18.5976 35.9486C18.7948 35.8628 18.9235 35.6741 18.9235 35.4597V33.6671H24.0954C26.1281 33.6671 27.7834 32.0118 27.7834 29.9791V26.3425C27.7834 26.0508 27.5433 25.8193 27.2602 25.8193H27.2516Z" fill="white"/>
<path d="M28.3408 9.00003H27.0028C22.7744 9.00003 19.3351 12.4394 19.3351 16.6678C19.3351 20.8962 22.7744 24.3355 27.0028 24.3355H28.3408C29.0012 24.3355 29.6531 24.2497 30.2878 24.0868L32.2604 26.0594C32.3634 26.1624 32.492 26.2138 32.6292 26.2138C32.6979 26.2138 32.7665 26.1967 32.8351 26.1709C33.0324 26.0852 33.161 25.8965 33.161 25.6821V22.6287C33.993 21.9511 34.6877 21.102 35.1766 20.1414C35.7255 19.0607 36.0085 17.8857 36.0085 16.6592C36.0085 12.4308 32.5692 8.99146 28.3408 8.99146V9.00003ZM32.3119 21.9511C32.1832 22.054 32.106 22.2084 32.106 22.3714V24.4041L30.8195 23.1176C30.7166 23.0146 30.5879 22.9632 30.4507 22.9632C30.3993 22.9632 30.3478 22.9632 30.2963 22.9889C29.6702 23.1776 29.0184 23.2805 28.3494 23.2805H27.0114C23.3662 23.2805 20.3986 20.3129 20.3986 16.6678C20.3986 13.0226 23.3662 10.055 27.0114 10.055H28.3494C31.9945 10.055 34.9621 13.0226 34.9621 16.6678C34.9621 18.7605 34.0015 20.6903 32.3205 21.9511H32.3119Z" fill="white"/>
<path d="M30.0476 14.7721C29.9704 13.6657 29.0784 12.7823 27.9806 12.7051C27.3545 12.6622 26.7541 12.8766 26.2995 13.2969C25.845 13.7172 25.5876 14.309 25.5876 14.9265C25.5876 15.2181 25.8278 15.4497 26.1108 15.4497C26.3939 15.4497 26.634 15.2095 26.634 14.9265C26.634 14.6006 26.7713 14.2918 27.0114 14.0688C27.2516 13.8458 27.5689 13.7343 27.9034 13.7515C28.4866 13.7944 28.9498 14.2575 28.9927 14.8407C29.0355 15.424 28.6496 15.9472 28.0749 16.0758C27.6118 16.1787 27.2859 16.5818 27.2859 17.0536V18.323C27.2859 18.6146 27.526 18.8461 27.8091 18.8461C28.0921 18.8461 28.3322 18.606 28.3322 18.323V17.0965C29.3958 16.8392 30.1077 15.87 30.0305 14.7721H30.0476Z" fill="white"/>
<path d="M28.1864 20.0384C28.0921 19.9441 27.9549 19.884 27.8176 19.884C27.6804 19.884 27.5432 19.9441 27.4488 20.0384C27.3545 20.1328 27.2944 20.27 27.2944 20.4072C27.2944 20.5445 27.3545 20.6817 27.4488 20.7846C27.5432 20.879 27.6804 20.939 27.8176 20.939C27.9549 20.939 28.0921 20.879 28.1864 20.7846C28.2808 20.6903 28.3408 20.553 28.3408 20.4072C28.3408 20.2614 28.2808 20.1328 28.1864 20.0384Z" fill="white"/>
<path d="M23.5035 25.3474H12.3793C12.0877 25.3474 11.8561 25.5876 11.8561 25.8706C11.8561 26.1536 12.0962 26.3938 12.3793 26.3938H23.5035C23.7951 26.3938 24.0267 26.1536 24.0267 25.8706C24.0267 25.5876 23.7865 25.3474 23.5035 25.3474Z" fill="white"/>
<path d="M21.4279 28.2979H12.3793C12.0877 28.2979 11.8561 28.538 11.8561 28.821C11.8561 29.1041 12.0962 29.3442 12.3793 29.3442H21.4364C21.7281 29.3442 21.9596 29.1041 21.9596 28.821C21.9596 28.538 21.7195 28.2979 21.4364 28.2979H21.4279Z" fill="white"/>
<path d="M20.0727 22.397H12.3793C12.0877 22.397 11.8561 22.6371 11.8561 22.9202C11.8561 23.2032 12.0962 23.4434 12.3793 23.4434H20.0813C20.3729 23.4434 20.6045 23.2032 20.6045 22.9202C20.6045 22.6371 20.3643 22.397 20.0813 22.397H20.0727Z" fill="white"/>
</g>
<defs>
<clipPath id="clip0_2077_3642">
<rect width="27" height="27" fill="white" transform="translate(9 9)"/>
</clipPath>
</defs>
</svg>
