<svg width="113" height="113" viewBox="0 0 113 113" fill="none" xmlns="http://www.w3.org/2000/svg">
<path d="M104.674 48.025C109.063 52.7805 109.063 60.1097 104.674 64.8651C102.047 67.7116 100.899 71.6212 101.57 75.4362C102.691 81.8096 98.729 87.9753 92.4658 89.603C88.7168 90.5773 85.6374 93.2456 84.1395 96.8178C81.637 102.786 74.9701 105.83 68.8212 103.813C65.1406 102.606 61.1074 103.186 57.916 105.381C52.5843 109.049 45.3297 108.006 41.2473 102.985C38.8036 99.9793 35.0972 98.2866 31.2255 98.408C24.7575 98.6108 19.2184 93.8112 18.4987 87.3801C18.0678 83.5306 15.8649 80.1027 12.5422 78.1117C6.99129 74.7854 4.92643 67.7531 7.79783 61.9537C9.51658 58.4824 9.51658 54.4077 7.79783 50.9364C4.92643 45.137 6.99129 38.1048 12.5422 34.7784C15.8649 32.7874 18.0678 29.3596 18.4987 25.5101C19.2184 19.0789 24.7575 14.2794 31.2255 14.4821C35.0972 14.6035 38.8036 12.9109 41.2473 9.90537C45.3297 4.88432 52.5843 3.84127 57.916 7.50877C61.1074 9.70406 65.1406 10.2839 68.8212 9.07671C74.9701 7.05987 81.637 10.1045 84.1395 16.0723C85.6374 19.6445 88.7168 22.3129 92.4658 23.2872C98.729 24.9149 102.691 31.0806 101.57 37.454C100.899 41.2689 102.047 45.1785 104.674 48.025Z" fill="#FE7E4F"/>
<rect width="54" height="54" transform="translate(30.0518 29.249)" fill="#FE7E4F"/>
<path d="M75.5571 38.2069H73.5491V35.5837C73.541 34.8041 73.2255 34.0592 72.6714 33.5107C72.1172 32.9623 71.369 32.6547 70.5893 32.6547C69.8096 32.6547 69.0615 32.9624 68.5073 33.5108C67.9531 34.0593 67.6377 34.8042 67.6296 35.5838V38.2069H60.0804V35.5837C60.0804 34.7988 59.7686 34.046 59.2135 33.4909C58.6585 32.9358 57.9056 32.624 57.1207 32.624C56.3357 32.624 55.5829 32.9358 55.0278 33.4909C54.4728 34.046 54.161 34.7988 54.161 35.5837V38.2069H46.6117V35.5837C46.6117 34.7988 46.2999 34.046 45.7449 33.4909C45.1898 32.9358 44.437 32.624 43.652 32.624C42.8671 32.624 42.1142 32.9358 41.5592 33.4909C41.0041 34.046 40.6923 34.7988 40.6923 35.5837V38.2069H38.5458C37.3516 38.2127 36.2083 38.6919 35.367 39.5395C34.5256 40.3871 34.0547 41.5337 34.0576 42.728V75.3529C34.0547 76.5471 34.5256 77.6938 35.367 78.5414C36.2083 79.389 37.3516 79.8682 38.5458 79.874H75.5571C76.7514 79.8682 77.8946 79.389 78.736 78.5414C79.5774 77.6938 80.0483 76.5472 80.0453 75.3529V42.728C80.0483 41.5337 79.5774 40.387 78.736 39.5395C77.8946 38.6919 76.7514 38.2127 75.5571 38.2069ZM69.3171 35.5837C69.3225 35.2498 69.4588 34.9314 69.6968 34.6971C69.9349 34.4629 70.2554 34.3316 70.5894 34.3316C70.9233 34.3316 71.2439 34.4629 71.4819 34.6972C71.7199 34.9314 71.8563 35.2499 71.8616 35.5838V38.2069H69.3171V35.5837ZM55.8485 35.5837C55.8538 35.2498 55.9901 34.9314 56.2282 34.6971C56.4662 34.4629 56.7867 34.3316 57.1207 34.3316C57.4547 34.3316 57.7752 34.4629 58.0132 34.6972C58.2512 34.9314 58.3876 35.2499 58.3929 35.5838V38.2069H55.8485V35.5837ZM42.3798 35.5837C42.3851 35.2498 42.5215 34.9314 42.7595 34.6971C42.9975 34.4629 43.3181 34.3316 43.652 34.3316C43.986 34.3316 44.3065 34.4629 44.5445 34.6972C44.7825 34.9314 44.9189 35.2499 44.9242 35.5838V38.2069H42.3798V35.5837ZM38.5458 39.8944H40.6923V41.5267C40.6956 41.9975 40.8106 42.4609 41.0278 42.8786C41.2451 43.2964 41.5584 43.6566 41.9421 43.9297C42.3257 44.2027 42.7686 44.3808 43.2345 44.4493C43.7004 44.5178 44.1759 44.4747 44.6218 44.3236C44.8296 44.2476 44.9991 44.093 45.094 43.8931C45.1888 43.6933 45.2014 43.4642 45.129 43.2552C45.0567 43.0462 44.9051 42.8739 44.7069 42.7755C44.5088 42.6772 44.28 42.6606 44.0697 42.7293C43.8779 42.7941 43.6735 42.8126 43.4732 42.7831C43.2729 42.7536 43.0825 42.677 42.9175 42.5597C42.7526 42.4423 42.6178 42.2874 42.5244 42.1079C42.4309 41.9283 42.3813 41.7291 42.3798 41.5266V39.8944H54.161V41.5267C54.1618 42.3114 54.4739 43.0637 55.0288 43.6185C55.5836 44.1734 56.336 44.4855 57.1207 44.4864C57.8473 44.5225 58.9114 44.164 58.612 43.2499C58.5757 43.1452 58.5192 43.0487 58.4456 42.9659C58.372 42.883 58.2828 42.8155 58.1831 42.7672C58.0834 42.7188 57.9751 42.6906 57.8645 42.6841C57.7539 42.6776 57.6431 42.6929 57.5384 42.7292C57.3466 42.7942 57.1422 42.8127 56.9419 42.7832C56.7416 42.7537 56.5511 42.6772 56.3861 42.5598C56.2212 42.4424 56.0864 42.2875 55.9929 42.1079C55.8995 41.9283 55.8499 41.7291 55.8485 41.5266V39.8944H67.6296V41.5267C67.6329 41.9975 67.7479 42.4609 67.9651 42.8787C68.1824 43.2965 68.4957 43.6567 68.8794 43.9298C69.263 44.2028 69.706 44.3809 70.1719 44.4494C70.6377 44.5178 71.1132 44.4747 71.5592 44.3236C71.7669 44.2475 71.9364 44.0929 72.0313 43.8931C72.1261 43.6933 72.1387 43.4642 72.0663 43.2552C71.994 43.0462 71.8424 42.874 71.6443 42.7756C71.4461 42.6772 71.2173 42.6606 71.0071 42.7293C70.8153 42.7942 70.6108 42.8127 70.4105 42.7833C70.2102 42.7539 70.0197 42.6773 69.8547 42.5599C69.6898 42.4425 69.555 42.2876 69.4616 42.108C69.3681 41.9284 69.3186 41.7291 69.3172 41.5266V39.8944H75.5571C76.304 39.8996 77.0183 40.2009 77.5434 40.7321C78.0684 41.2633 78.3613 41.9811 78.3578 42.728V46.9761C78.2334 46.8988 78.0906 46.8562 77.9442 46.8528L35.7451 46.8969V42.728C35.7416 41.9811 36.0345 41.2633 36.5596 40.7321C37.0846 40.2009 37.7989 39.8996 38.5458 39.8944ZM75.5571 78.1865H38.5458C37.7989 78.1813 37.0846 77.88 36.5596 77.3488C36.0345 76.8176 35.7416 76.0998 35.7451 75.3529V48.5844L77.9458 48.5404C78.0916 48.5367 78.2339 48.4942 78.3578 48.4173V75.3529C78.3613 76.0998 78.0684 76.8176 77.5434 77.3488C77.0183 77.88 76.304 78.1813 75.5571 78.1865Z" fill="#020035"/>
<path d="M46.9801 52.4563H41.5361C41.4253 52.4563 41.3156 52.4781 41.2132 52.5205C41.1108 52.5629 41.0178 52.625 40.9394 52.7034C40.8611 52.7817 40.7989 52.8747 40.7566 52.9771C40.7142 53.0795 40.6924 53.1892 40.6924 53.3V58.2175C40.6924 58.3283 40.7142 58.4381 40.7566 58.5404C40.7989 58.6428 40.8611 58.7359 40.9394 58.8142C41.0178 58.8926 41.1108 58.9547 41.2132 58.9971C41.3156 59.0395 41.4253 59.0613 41.5361 59.0613H46.9801C47.0909 59.0613 47.2007 59.0395 47.3031 58.9971C47.4054 58.9547 47.4985 58.8926 47.5768 58.8142C47.6552 58.7359 47.7173 58.6428 47.7597 58.5404C47.8021 58.4381 47.8239 58.3283 47.8239 58.2175V53.3C47.8239 53.1892 47.8021 53.0795 47.7597 52.9771C47.7173 52.8747 47.6552 52.7817 47.5768 52.7034C47.4985 52.625 47.4054 52.5629 47.3031 52.5205C47.2007 52.4781 47.0909 52.4563 46.9801 52.4563ZM46.1364 57.3738H42.3799V54.1438H46.1364V57.3738Z" fill="#020035"/>
<path d="M58.9528 52.4563H53.5088C53.398 52.4563 53.2882 52.4781 53.1859 52.5205C53.0835 52.5629 52.9905 52.625 52.9121 52.7034C52.8337 52.7817 52.7716 52.8747 52.7292 52.9771C52.6868 53.0795 52.665 53.1892 52.665 53.3V58.2175C52.665 58.3283 52.6868 58.4381 52.7292 58.5404C52.7716 58.6428 52.8337 58.7359 52.9121 58.8142C52.9905 58.8926 53.0835 58.9547 53.1859 58.9971C53.2882 59.0395 53.398 59.0613 53.5088 59.0613H58.9528C59.0636 59.0613 59.1733 59.0395 59.2757 58.9971C59.3781 58.9547 59.4711 58.8926 59.5495 58.8142C59.6278 58.7359 59.69 58.6428 59.7324 58.5404C59.7748 58.4381 59.7966 58.3283 59.7965 58.2175V53.3C59.7966 53.1892 59.7748 53.0795 59.7324 52.9771C59.69 52.8747 59.6278 52.7817 59.5495 52.7034C59.4711 52.625 59.3781 52.5629 59.2757 52.5205C59.1733 52.4781 59.0636 52.4563 58.9528 52.4563ZM58.109 57.3738H54.3525V54.1438H58.109V57.3738Z" fill="#020035"/>
<path d="M70.9253 52.4563H65.4805C65.3697 52.4563 65.2599 52.4781 65.1575 52.5205C65.0552 52.5629 64.9621 52.625 64.8838 52.7034C64.8054 52.7817 64.7433 52.8747 64.7009 52.9771C64.6585 53.0795 64.6367 53.1892 64.6367 53.3V58.2175C64.6367 58.3283 64.6585 58.4381 64.7009 58.5404C64.7433 58.6428 64.8054 58.7359 64.8838 58.8142C64.9621 58.8926 65.0552 58.9547 65.1575 58.9971C65.2599 59.0395 65.3697 59.0613 65.4805 59.0613H70.9253C71.0361 59.0613 71.1458 59.0395 71.2482 58.9971C71.3506 58.9547 71.4436 58.8926 71.522 58.8142C71.6003 58.7359 71.6625 58.6428 71.7049 58.5404C71.7473 58.4381 71.7691 58.3283 71.769 58.2175V53.3C71.7691 53.1892 71.7473 53.0795 71.7049 52.9771C71.6625 52.8747 71.6003 52.7817 71.522 52.7034C71.4436 52.625 71.3506 52.5629 71.2482 52.5205C71.1458 52.4781 71.0361 52.4563 70.9253 52.4563ZM70.0815 57.3738H66.3242V54.1438H70.0815V57.3738Z" fill="#020035"/>
<path d="M46.9801 64.4287H41.5361C41.4253 64.4287 41.3156 64.4505 41.2132 64.4929C41.1108 64.5353 41.0178 64.5974 40.9394 64.6758C40.8611 64.7541 40.7989 64.8472 40.7565 64.9495C40.7142 65.0519 40.6924 65.1616 40.6924 65.2725V70.1899C40.6924 70.3007 40.7142 70.4105 40.7565 70.5129C40.7989 70.6152 40.8611 70.7083 40.9394 70.7866C41.0178 70.865 41.1108 70.9271 41.2132 70.9695C41.3156 71.0119 41.4253 71.0337 41.5361 71.0337H46.9801C47.0909 71.0337 47.2007 71.0119 47.3031 70.9695C47.4054 70.9271 47.4985 70.865 47.5768 70.7866C47.6552 70.7083 47.7173 70.6152 47.7597 70.5129C47.8021 70.4105 47.8239 70.3007 47.8239 70.1899V65.2725C47.8239 65.1617 47.8021 65.0519 47.7597 64.9495C47.7173 64.8472 47.6552 64.7541 47.5768 64.6758C47.4985 64.5974 47.4054 64.5353 47.3031 64.4929C47.2007 64.4505 47.0909 64.4287 46.9801 64.4287ZM46.1364 69.3462H42.3799V66.1162H46.1364V69.3462Z" fill="#020035"/>
<path d="M58.9528 64.4287H53.5088C53.398 64.4287 53.2882 64.4505 53.1859 64.4929C53.0835 64.5353 52.9905 64.5974 52.9121 64.6758C52.8337 64.7541 52.7716 64.8472 52.7292 64.9495C52.6868 65.0519 52.665 65.1617 52.665 65.2725V70.1899C52.665 70.3007 52.6868 70.4105 52.7292 70.5129C52.7716 70.6152 52.8337 70.7083 52.9121 70.7866C52.9905 70.865 53.0835 70.9271 53.1859 70.9695C53.2882 71.0119 53.398 71.0337 53.5088 71.0337H58.9528C59.0636 71.0337 59.1733 71.0119 59.2757 70.9695C59.3781 70.9271 59.4711 70.865 59.5495 70.7866C59.6278 70.7083 59.69 70.6152 59.7324 70.5129C59.7748 70.4105 59.7966 70.3007 59.7965 70.1899V65.2725C59.7966 65.1617 59.7748 65.0519 59.7324 64.9495C59.69 64.8472 59.6278 64.7541 59.5495 64.6758C59.4711 64.5974 59.3781 64.5353 59.2757 64.4929C59.1733 64.4505 59.0636 64.4287 58.9528 64.4287ZM58.109 69.3462H54.3525V66.1162H58.109V69.3462Z" fill="#020035"/>
<path d="M70.9253 64.4287H65.4805C65.3697 64.4287 65.2599 64.4505 65.1575 64.4929C65.0552 64.5353 64.9621 64.5974 64.8838 64.6758C64.8054 64.7541 64.7433 64.8472 64.7009 64.9495C64.6585 65.0519 64.6367 65.1616 64.6367 65.2725V70.1899C64.6367 70.3007 64.6585 70.4105 64.7009 70.5129C64.7433 70.6152 64.8054 70.7083 64.8838 70.7866C64.9621 70.865 65.0552 70.9271 65.1575 70.9695C65.2599 71.0119 65.3697 71.0337 65.4805 71.0337H70.9253C71.0361 71.0337 71.1458 71.0119 71.2482 70.9695C71.3506 70.9271 71.4436 70.865 71.522 70.7866C71.6003 70.7083 71.6625 70.6152 71.7049 70.5129C71.7473 70.4105 71.7691 70.3007 71.769 70.1899V65.2725C71.7691 65.1616 71.7473 65.0519 71.7049 64.9495C71.6625 64.8472 71.6003 64.7541 71.522 64.6758C71.4436 64.5974 71.3506 64.5353 71.2482 64.4929C71.1458 64.4505 71.0361 64.4287 70.9253 64.4287ZM70.0815 69.3462H66.3242V66.1162H70.0815V69.3462Z" fill="#020035"/>
</svg>
